{
	"patcher" : 	{
		"fileversion" : 1,
		"appversion" : 		{
			"major" : 5,
			"minor" : 1,
			"revision" : 9
		}
,
		"rect" : [ 254.0, 190.0, 894.0, 557.0 ],
		"bglocked" : 0,
		"defrect" : [ 254.0, 190.0, 894.0, 557.0 ],
		"openrect" : [ 0.0, 0.0, 0.0, 0.0 ],
		"openinpresentation" : 0,
		"default_fontsize" : 10.0,
		"default_fontface" : 0,
		"default_fontname" : "Trebuchet MS",
		"gridonopen" : 0,
		"gridsize" : [ 7.5, 7.5 ],
		"gridsnaponopen" : 0,
		"toolbarvisible" : 1,
		"boxanimatetime" : 200,
		"imprint" : 0,
		"enablehscroll" : 1,
		"enablevscroll" : 1,
		"devicewidth" : 0.0,
		"boxes" : [ 			{
				"box" : 				{
					"maxclass" : "newobj",
					"text" : "+ 500",
					"numinlets" : 2,
					"patching_rect" : [ 435.0, 367.5, 34.0, 18.0 ],
					"numoutlets" : 1,
					"id" : "obj-33",
					"fontname" : "Trebuchet MS",
					"outlettype" : [ "int" ],
					"fontsize" : 10.0
				}

			}
, 			{
				"box" : 				{
					"maxclass" : "newobj",
					"text" : "random 5000",
					"numinlets" : 2,
					"patching_rect" : [ 435.0, 345.0, 68.0, 18.0 ],
					"numoutlets" : 1,
					"id" : "obj-32",
					"fontname" : "Trebuchet MS",
					"outlettype" : [ "int" ],
					"fontsize" : 10.0
				}

			}
, 			{
				"box" : 				{
					"maxclass" : "newobj",
					"text" : "reson~ 1 3000 50",
					"numinlets" : 4,
					"patching_rect" : [ 390.0, 450.0, 86.0, 18.0 ],
					"numoutlets" : 1,
					"id" : "obj-31",
					"fontname" : "Trebuchet MS",
					"outlettype" : [ "signal" ],
					"fontsize" : 10.0
				}

			}
, 			{
				"box" : 				{
					"maxclass" : "newobj",
					"text" : "*~",
					"numinlets" : 2,
					"patching_rect" : [ 472.5, 502.5, 32.5, 18.0 ],
					"numoutlets" : 1,
					"id" : "obj-29",
					"fontname" : "Trebuchet MS",
					"outlettype" : [ "signal" ],
					"fontsize" : 10.0
				}

			}
, 			{
				"box" : 				{
					"maxclass" : "newobj",
					"text" : "sel 1",
					"numinlets" : 2,
					"patching_rect" : [ 532.5, 322.5, 32.5, 18.0 ],
					"numoutlets" : 2,
					"id" : "obj-28",
					"fontname" : "Trebuchet MS",
					"outlettype" : [ "bang", "" ],
					"fontsize" : 10.0
				}

			}
, 			{
				"box" : 				{
					"maxclass" : "ezdac~",
					"numinlets" : 2,
					"patching_rect" : [ 585.0, 405.0, 45.0, 45.0 ],
					"numoutlets" : 0,
					"id" : "obj-142"
				}

			}
, 			{
				"box" : 				{
					"maxclass" : "gain~",
					"numinlets" : 2,
					"patching_rect" : [ 705.0, 352.5, 20.0, 140.0 ],
					"numoutlets" : 2,
					"id" : "obj-141",
					"outlettype" : [ "signal", "int" ]
				}

			}
, 			{
				"box" : 				{
					"maxclass" : "newobj",
					"text" : "*~",
					"numinlets" : 2,
					"patching_rect" : [ 502.5, 412.5, 32.5, 18.0 ],
					"numoutlets" : 1,
					"id" : "obj-27",
					"fontname" : "Trebuchet MS",
					"outlettype" : [ "signal" ],
					"fontsize" : 10.0
				}

			}
, 			{
				"box" : 				{
					"maxclass" : "newobj",
					"text" : "random 10",
					"numinlets" : 2,
					"patching_rect" : [ 502.5, 345.0, 58.0, 18.0 ],
					"numoutlets" : 1,
					"id" : "obj-26",
					"fontname" : "Trebuchet MS",
					"outlettype" : [ "int" ],
					"fontsize" : 10.0
				}

			}
, 			{
				"box" : 				{
					"maxclass" : "message",
					"text" : "1, 0 $1",
					"numinlets" : 2,
					"patching_rect" : [ 502.5, 367.5, 41.0, 16.0 ],
					"numoutlets" : 1,
					"id" : "obj-25",
					"fontname" : "Trebuchet MS",
					"outlettype" : [ "" ],
					"fontsize" : 10.0
				}

			}
, 			{
				"box" : 				{
					"maxclass" : "newobj",
					"text" : "line~",
					"numinlets" : 2,
					"patching_rect" : [ 502.5, 390.0, 32.5, 18.0 ],
					"numoutlets" : 2,
					"id" : "obj-23",
					"fontname" : "Trebuchet MS",
					"outlettype" : [ "signal", "bang" ],
					"fontsize" : 10.0
				}

			}
, 			{
				"box" : 				{
					"maxclass" : "toggle",
					"numinlets" : 1,
					"patching_rect" : [ 502.5, 322.5, 20.0, 20.0 ],
					"numoutlets" : 1,
					"id" : "obj-22",
					"outlettype" : [ "int" ]
				}

			}
, 			{
				"box" : 				{
					"maxclass" : "newobj",
					"text" : "expr $f1 > 0. && $f1 < $f2",
					"numinlets" : 2,
					"patching_rect" : [ 502.5, 292.5, 128.0, 18.0 ],
					"numoutlets" : 1,
					"id" : "obj-20",
					"fontname" : "Trebuchet MS",
					"outlettype" : [ "" ],
					"fontsize" : 10.0
				}

			}
, 			{
				"box" : 				{
					"maxclass" : "flonum",
					"numinlets" : 1,
					"patching_rect" : [ 502.5, 270.0, 50.0, 18.0 ],
					"numoutlets" : 2,
					"id" : "obj-19",
					"fontname" : "Trebuchet MS",
					"outlettype" : [ "float", "bang" ],
					"fontsize" : 10.0
				}

			}
, 			{
				"box" : 				{
					"maxclass" : "newobj",
					"text" : "* 100.",
					"numinlets" : 2,
					"patching_rect" : [ 502.5, 247.5, 37.0, 18.0 ],
					"numoutlets" : 1,
					"id" : "obj-17",
					"fontname" : "Trebuchet MS",
					"outlettype" : [ "float" ],
					"fontsize" : 10.0
				}

			}
, 			{
				"box" : 				{
					"maxclass" : "newobj",
					"text" : "snapshot~ 1",
					"numinlets" : 2,
					"patching_rect" : [ 502.5, 225.0, 63.0, 18.0 ],
					"numoutlets" : 1,
					"id" : "obj-16",
					"fontname" : "Trebuchet MS",
					"outlettype" : [ "float" ],
					"fontsize" : 10.0
				}

			}
, 			{
				"box" : 				{
					"maxclass" : "newobj",
					"text" : "average~ 20 rms",
					"numinlets" : 1,
					"patching_rect" : [ 502.5, 202.5, 84.0, 18.0 ],
					"numoutlets" : 1,
					"id" : "obj-13",
					"fontname" : "Trebuchet MS",
					"outlettype" : [ "signal" ],
					"fontsize" : 10.0
				}

			}
, 			{
				"box" : 				{
					"maxclass" : "newobj",
					"text" : "onepole~ 1",
					"numinlets" : 2,
					"patching_rect" : [ 502.5, 180.0, 60.0, 18.0 ],
					"numoutlets" : 1,
					"id" : "obj-5",
					"fontname" : "Trebuchet MS",
					"outlettype" : [ "signal" ],
					"fontsize" : 10.0
				}

			}
, 			{
				"box" : 				{
					"maxclass" : "flonum",
					"numinlets" : 1,
					"patching_rect" : [ 337.5, 352.5, 50.0, 18.0 ],
					"numoutlets" : 2,
					"id" : "obj-218",
					"fontname" : "Trebuchet MS",
					"outlettype" : [ "float", "bang" ],
					"fontsize" : 10.0
				}

			}
, 			{
				"box" : 				{
					"maxclass" : "newobj",
					"text" : "*~",
					"numinlets" : 2,
					"patching_rect" : [ 300.0, 375.0, 32.5, 18.0 ],
					"numoutlets" : 1,
					"id" : "obj-216",
					"fontname" : "Trebuchet MS",
					"outlettype" : [ "signal" ],
					"fontsize" : 10.0
				}

			}
, 			{
				"box" : 				{
					"maxclass" : "slider",
					"numinlets" : 1,
					"patching_rect" : [ 202.5, 127.5, 157.5, 22.5 ],
					"numoutlets" : 1,
					"id" : "obj-38",
					"outlettype" : [ "" ],
					"size" : 1.0,
					"floatoutput" : 1
				}

			}
, 			{
				"box" : 				{
					"maxclass" : "newobj",
					"text" : "scale 0. 1. 0. 0.2",
					"numinlets" : 6,
					"patching_rect" : [ 202.5, 187.5, 86.5, 18.0 ],
					"numoutlets" : 1,
					"id" : "obj-211",
					"fontname" : "Trebuchet MS",
					"outlettype" : [ "" ],
					"fontsize" : 10.0
				}

			}
, 			{
				"box" : 				{
					"maxclass" : "newobj",
					"text" : "*~",
					"numinlets" : 2,
					"patching_rect" : [ 375.0, 322.5, 32.5, 18.0 ],
					"numoutlets" : 1,
					"id" : "obj-212",
					"fontname" : "Trebuchet MS",
					"outlettype" : [ "signal" ],
					"fontsize" : 10.0
				}

			}
, 			{
				"box" : 				{
					"maxclass" : "newobj",
					"text" : "*~",
					"numinlets" : 2,
					"patching_rect" : [ 375.0, 300.0, 32.5, 18.0 ],
					"numoutlets" : 1,
					"id" : "obj-213",
					"fontname" : "Trebuchet MS",
					"outlettype" : [ "signal" ],
					"fontsize" : 10.0
				}

			}
, 			{
				"box" : 				{
					"maxclass" : "newobj",
					"text" : "!/ 1.",
					"numinlets" : 2,
					"patching_rect" : [ 412.5, 277.5, 32.5, 18.0 ],
					"numoutlets" : 1,
					"id" : "obj-12",
					"fontname" : "Trebuchet MS",
					"outlettype" : [ "float" ],
					"fontsize" : 10.0
				}

			}
, 			{
				"box" : 				{
					"maxclass" : "newobj",
					"text" : "*~ 1",
					"numinlets" : 2,
					"patching_rect" : [ 300.0, 345.0, 32.5, 18.0 ],
					"numoutlets" : 1,
					"id" : "obj-11",
					"fontname" : "Trebuchet MS",
					"outlettype" : [ "signal" ],
					"fontsize" : 10.0
				}

			}
, 			{
				"box" : 				{
					"maxclass" : "flonum",
					"numinlets" : 1,
					"patching_rect" : [ 375.0, 217.5, 56.0, 18.0 ],
					"numoutlets" : 2,
					"id" : "obj-10",
					"fontname" : "Trebuchet MS",
					"outlettype" : [ "float", "bang" ],
					"fontsize" : 10.0
				}

			}
, 			{
				"box" : 				{
					"maxclass" : "newobj",
					"text" : "!-~",
					"numinlets" : 2,
					"patching_rect" : [ 375.0, 277.5, 32.5, 18.0 ],
					"numoutlets" : 1,
					"id" : "obj-8",
					"fontname" : "Trebuchet MS",
					"outlettype" : [ "signal" ],
					"fontsize" : 10.0
				}

			}
, 			{
				"box" : 				{
					"maxclass" : "newobj",
					"text" : "==~",
					"numinlets" : 2,
					"patching_rect" : [ 300.0, 285.0, 32.5, 18.0 ],
					"numoutlets" : 1,
					"id" : "obj-4",
					"fontname" : "Trebuchet MS",
					"outlettype" : [ "signal" ],
					"fontsize" : 10.0
				}

			}
, 			{
				"box" : 				{
					"maxclass" : "newobj",
					"text" : "<~ 0.001",
					"numinlets" : 2,
					"patching_rect" : [ 345.0, 247.5, 49.0, 18.0 ],
					"numoutlets" : 1,
					"id" : "obj-3",
					"fontname" : "Trebuchet MS",
					"outlettype" : [ "signal" ],
					"fontsize" : 10.0
				}

			}
, 			{
				"box" : 				{
					"maxclass" : "newobj",
					"text" : ">~ 0.",
					"numinlets" : 2,
					"patching_rect" : [ 300.0, 247.5, 33.0, 18.0 ],
					"numoutlets" : 1,
					"id" : "obj-2",
					"fontname" : "Trebuchet MS",
					"outlettype" : [ "signal" ],
					"fontsize" : 10.0
				}

			}
, 			{
				"box" : 				{
					"maxclass" : "newobj",
					"text" : "noise~",
					"numinlets" : 1,
					"patching_rect" : [ 300.0, 157.5, 39.0, 18.0 ],
					"numoutlets" : 1,
					"id" : "obj-1",
					"fontname" : "Trebuchet MS",
					"outlettype" : [ "signal" ],
					"fontsize" : 10.0
				}

			}
 ],
		"lines" : [ 			{
				"patchline" : 				{
					"source" : [ "obj-33", 0 ],
					"destination" : [ "obj-31", 2 ],
					"hidden" : 0,
					"midpoints" : [  ]
				}

			}
, 			{
				"patchline" : 				{
					"source" : [ "obj-31", 0 ],
					"destination" : [ "obj-29", 0 ],
					"hidden" : 0,
					"midpoints" : [  ]
				}

			}
, 			{
				"patchline" : 				{
					"source" : [ "obj-1", 0 ],
					"destination" : [ "obj-31", 0 ],
					"hidden" : 0,
					"midpoints" : [  ]
				}

			}
, 			{
				"patchline" : 				{
					"source" : [ "obj-32", 0 ],
					"destination" : [ "obj-33", 0 ],
					"hidden" : 0,
					"midpoints" : [  ]
				}

			}
, 			{
				"patchline" : 				{
					"source" : [ "obj-28", 0 ],
					"destination" : [ "obj-32", 0 ],
					"hidden" : 0,
					"midpoints" : [  ]
				}

			}
, 			{
				"patchline" : 				{
					"source" : [ "obj-26", 0 ],
					"destination" : [ "obj-25", 0 ],
					"hidden" : 0,
					"midpoints" : [  ]
				}

			}
, 			{
				"patchline" : 				{
					"source" : [ "obj-28", 0 ],
					"destination" : [ "obj-26", 0 ],
					"hidden" : 0,
					"midpoints" : [  ]
				}

			}
, 			{
				"patchline" : 				{
					"source" : [ "obj-29", 0 ],
					"destination" : [ "obj-141", 0 ],
					"hidden" : 0,
					"midpoints" : [  ]
				}

			}
, 			{
				"patchline" : 				{
					"source" : [ "obj-27", 0 ],
					"destination" : [ "obj-29", 1 ],
					"hidden" : 0,
					"midpoints" : [  ]
				}

			}
, 			{
				"patchline" : 				{
					"source" : [ "obj-20", 0 ],
					"destination" : [ "obj-28", 0 ],
					"hidden" : 0,
					"midpoints" : [  ]
				}

			}
, 			{
				"patchline" : 				{
					"source" : [ "obj-141", 0 ],
					"destination" : [ "obj-142", 0 ],
					"hidden" : 0,
					"midpoints" : [  ]
				}

			}
, 			{
				"patchline" : 				{
					"source" : [ "obj-141", 0 ],
					"destination" : [ "obj-142", 1 ],
					"hidden" : 0,
					"midpoints" : [  ]
				}

			}
, 			{
				"patchline" : 				{
					"source" : [ "obj-23", 0 ],
					"destination" : [ "obj-27", 1 ],
					"hidden" : 0,
					"midpoints" : [  ]
				}

			}
, 			{
				"patchline" : 				{
					"source" : [ "obj-23", 0 ],
					"destination" : [ "obj-27", 0 ],
					"hidden" : 0,
					"midpoints" : [  ]
				}

			}
, 			{
				"patchline" : 				{
					"source" : [ "obj-25", 0 ],
					"destination" : [ "obj-23", 0 ],
					"hidden" : 0,
					"midpoints" : [  ]
				}

			}
, 			{
				"patchline" : 				{
					"source" : [ "obj-211", 0 ],
					"destination" : [ "obj-10", 0 ],
					"hidden" : 0,
					"midpoints" : [  ]
				}

			}
, 			{
				"patchline" : 				{
					"source" : [ "obj-38", 0 ],
					"destination" : [ "obj-211", 0 ],
					"hidden" : 0,
					"midpoints" : [  ]
				}

			}
, 			{
				"patchline" : 				{
					"source" : [ "obj-211", 0 ],
					"destination" : [ "obj-20", 1 ],
					"hidden" : 0,
					"midpoints" : [  ]
				}

			}
, 			{
				"patchline" : 				{
					"source" : [ "obj-20", 0 ],
					"destination" : [ "obj-22", 0 ],
					"hidden" : 0,
					"midpoints" : [  ]
				}

			}
, 			{
				"patchline" : 				{
					"source" : [ "obj-19", 0 ],
					"destination" : [ "obj-20", 0 ],
					"hidden" : 0,
					"midpoints" : [  ]
				}

			}
, 			{
				"patchline" : 				{
					"source" : [ "obj-17", 0 ],
					"destination" : [ "obj-19", 0 ],
					"hidden" : 0,
					"midpoints" : [  ]
				}

			}
, 			{
				"patchline" : 				{
					"source" : [ "obj-16", 0 ],
					"destination" : [ "obj-17", 0 ],
					"hidden" : 0,
					"midpoints" : [  ]
				}

			}
, 			{
				"patchline" : 				{
					"source" : [ "obj-13", 0 ],
					"destination" : [ "obj-16", 0 ],
					"hidden" : 0,
					"midpoints" : [  ]
				}

			}
, 			{
				"patchline" : 				{
					"source" : [ "obj-5", 0 ],
					"destination" : [ "obj-13", 0 ],
					"hidden" : 0,
					"midpoints" : [  ]
				}

			}
, 			{
				"patchline" : 				{
					"source" : [ "obj-1", 0 ],
					"destination" : [ "obj-5", 0 ],
					"hidden" : 0,
					"midpoints" : [  ]
				}

			}
, 			{
				"patchline" : 				{
					"source" : [ "obj-212", 0 ],
					"destination" : [ "obj-11", 1 ],
					"hidden" : 0,
					"midpoints" : [  ]
				}

			}
, 			{
				"patchline" : 				{
					"source" : [ "obj-213", 0 ],
					"destination" : [ "obj-212", 0 ],
					"hidden" : 0,
					"midpoints" : [  ]
				}

			}
, 			{
				"patchline" : 				{
					"source" : [ "obj-213", 0 ],
					"destination" : [ "obj-212", 1 ],
					"hidden" : 0,
					"midpoints" : [  ]
				}

			}
, 			{
				"patchline" : 				{
					"source" : [ "obj-4", 0 ],
					"destination" : [ "obj-11", 0 ],
					"hidden" : 0,
					"midpoints" : [  ]
				}

			}
, 			{
				"patchline" : 				{
					"source" : [ "obj-12", 0 ],
					"destination" : [ "obj-213", 1 ],
					"hidden" : 0,
					"midpoints" : [  ]
				}

			}
, 			{
				"patchline" : 				{
					"source" : [ "obj-1", 0 ],
					"destination" : [ "obj-2", 0 ],
					"hidden" : 0,
					"midpoints" : [  ]
				}

			}
, 			{
				"patchline" : 				{
					"source" : [ "obj-2", 0 ],
					"destination" : [ "obj-4", 0 ],
					"hidden" : 0,
					"midpoints" : [  ]
				}

			}
, 			{
				"patchline" : 				{
					"source" : [ "obj-8", 0 ],
					"destination" : [ "obj-213", 0 ],
					"hidden" : 0,
					"midpoints" : [  ]
				}

			}
, 			{
				"patchline" : 				{
					"source" : [ "obj-10", 0 ],
					"destination" : [ "obj-12", 0 ],
					"hidden" : 0,
					"midpoints" : [  ]
				}

			}
, 			{
				"patchline" : 				{
					"source" : [ "obj-10", 0 ],
					"destination" : [ "obj-3", 1 ],
					"hidden" : 0,
					"midpoints" : [  ]
				}

			}
, 			{
				"patchline" : 				{
					"source" : [ "obj-3", 0 ],
					"destination" : [ "obj-4", 1 ],
					"hidden" : 0,
					"midpoints" : [  ]
				}

			}
, 			{
				"patchline" : 				{
					"source" : [ "obj-1", 0 ],
					"destination" : [ "obj-3", 0 ],
					"hidden" : 0,
					"midpoints" : [  ]
				}

			}
, 			{
				"patchline" : 				{
					"source" : [ "obj-1", 0 ],
					"destination" : [ "obj-8", 0 ],
					"hidden" : 0,
					"midpoints" : [  ]
				}

			}
, 			{
				"patchline" : 				{
					"source" : [ "obj-10", 0 ],
					"destination" : [ "obj-8", 1 ],
					"hidden" : 0,
					"midpoints" : [  ]
				}

			}
, 			{
				"patchline" : 				{
					"source" : [ "obj-11", 0 ],
					"destination" : [ "obj-216", 0 ],
					"hidden" : 0,
					"midpoints" : [  ]
				}

			}
, 			{
				"patchline" : 				{
					"source" : [ "obj-218", 0 ],
					"destination" : [ "obj-216", 1 ],
					"hidden" : 0,
					"midpoints" : [  ]
				}

			}
 ]
	}

}
