{
	"patcher" : 	{
		"fileversion" : 1,
		"appversion" : 		{
			"major" : 5,
			"minor" : 1,
			"revision" : 9
		}
,
		"rect" : [ 153.0, 79.0, 988.0, 611.0 ],
		"bglocked" : 0,
		"defrect" : [ 153.0, 79.0, 988.0, 611.0 ],
		"openrect" : [ 0.0, 0.0, 0.0, 0.0 ],
		"openinpresentation" : 0,
		"default_fontsize" : 12.0,
		"default_fontface" : 0,
		"default_fontname" : "Arial",
		"gridonopen" : 0,
		"gridsize" : [ 15.0, 15.0 ],
		"gridsnaponopen" : 0,
		"toolbarvisible" : 1,
		"boxanimatetime" : 200,
		"imprint" : 0,
		"enablehscroll" : 1,
		"enablevscroll" : 1,
		"devicewidth" : 0.0,
		"boxes" : [ 			{
				"box" : 				{
					"maxclass" : "button",
					"numinlets" : 1,
					"patching_rect" : [ 60.0, 45.0, 20.0, 20.0 ],
					"numoutlets" : 1,
					"id" : "obj-4",
					"outlettype" : [ "bang" ]
				}

			}
, 			{
				"box" : 				{
					"maxclass" : "ezdac~",
					"numinlets" : 2,
					"patching_rect" : [ 137.0, 369.0, 45.0, 45.0 ],
					"numoutlets" : 0,
					"id" : "obj-16"
				}

			}
, 			{
				"box" : 				{
					"maxclass" : "gain~",
					"numinlets" : 2,
					"patching_rect" : [ 63.0, 249.0, 22.0, 140.0 ],
					"numoutlets" : 2,
					"id" : "obj-15",
					"outlettype" : [ "signal", "int" ]
				}

			}
, 			{
				"box" : 				{
					"maxclass" : "newobj",
					"text" : "p kick~",
					"numinlets" : 2,
					"patching_rect" : [ 60.0, 135.0, 42.0, 18.0 ],
					"numoutlets" : 1,
					"id" : "obj-303",
					"fontname" : "Trebuchet MS",
					"outlettype" : [ "signal" ],
					"fontsize" : 10.0,
					"patcher" : 					{
						"fileversion" : 1,
						"appversion" : 						{
							"major" : 5,
							"minor" : 1,
							"revision" : 9
						}
,
						"rect" : [ 50.0, 67.0, 1220.0, 584.0 ],
						"bglocked" : 0,
						"defrect" : [ 50.0, 67.0, 1220.0, 584.0 ],
						"openrect" : [ 0.0, 0.0, 0.0, 0.0 ],
						"openinpresentation" : 0,
						"default_fontsize" : 10.0,
						"default_fontface" : 0,
						"default_fontname" : "Trebuchet MS",
						"gridonopen" : 0,
						"gridsize" : [ 7.5, 7.5 ],
						"gridsnaponopen" : 0,
						"toolbarvisible" : 1,
						"boxanimatetime" : 200,
						"imprint" : 0,
						"enablehscroll" : 1,
						"enablevscroll" : 1,
						"devicewidth" : 0.0,
						"visible" : 1,
						"boxes" : [ 							{
								"box" : 								{
									"maxclass" : "newobj",
									"text" : "* 0.75",
									"numinlets" : 2,
									"patching_rect" : [ 660.0, 367.5, 37.0, 18.0 ],
									"numoutlets" : 1,
									"id" : "obj-174",
									"fontname" : "Trebuchet MS",
									"outlettype" : [ "float" ],
									"fontsize" : 10.0
								}

							}
, 							{
								"box" : 								{
									"maxclass" : "flonum",
									"numinlets" : 1,
									"patching_rect" : [ 772.5, 292.5, 50.0, 18.0 ],
									"numoutlets" : 2,
									"id" : "obj-173",
									"fontname" : "Trebuchet MS",
									"outlettype" : [ "float", "bang" ],
									"fontsize" : 10.0
								}

							}
, 							{
								"box" : 								{
									"maxclass" : "newobj",
									"text" : "r #0tP",
									"numinlets" : 0,
									"patching_rect" : [ 637.5, 345.0, 37.0, 18.0 ],
									"numoutlets" : 1,
									"id" : "obj-171",
									"fontname" : "Trebuchet MS",
									"outlettype" : [ "" ],
									"fontsize" : 10.0
								}

							}
, 							{
								"box" : 								{
									"maxclass" : "newobj",
									"text" : "resMod 8000 6 100",
									"numinlets" : 5,
									"patching_rect" : [ 645.0, 247.5, 93.0, 18.0 ],
									"numoutlets" : 1,
									"id" : "obj-169",
									"fontname" : "Trebuchet MS",
									"outlettype" : [ "signal" ],
									"fontsize" : 10.0
								}

							}
, 							{
								"box" : 								{
									"maxclass" : "newobj",
									"text" : "resMod 5000 -12 100",
									"numinlets" : 5,
									"patching_rect" : [ 555.0, 247.5, 102.0, 18.0 ],
									"numoutlets" : 1,
									"id" : "obj-170",
									"fontname" : "Trebuchet MS",
									"outlettype" : [ "signal" ],
									"fontsize" : 10.0
								}

							}
, 							{
								"box" : 								{
									"maxclass" : "newobj",
									"text" : "resMod 2000 -5 200",
									"numinlets" : 5,
									"patching_rect" : [ 465.0, 247.5, 97.0, 18.0 ],
									"numoutlets" : 1,
									"id" : "obj-166",
									"fontname" : "Trebuchet MS",
									"outlettype" : [ "signal" ],
									"fontsize" : 10.0
								}

							}
, 							{
								"box" : 								{
									"maxclass" : "newobj",
									"text" : "resMod 8000 1 200",
									"numinlets" : 5,
									"patching_rect" : [ 375.0, 247.5, 93.0, 18.0 ],
									"numoutlets" : 1,
									"id" : "obj-165",
									"fontname" : "Trebuchet MS",
									"outlettype" : [ "signal" ],
									"fontsize" : 10.0
								}

							}
, 							{
								"box" : 								{
									"maxclass" : "flonum",
									"numinlets" : 1,
									"patching_rect" : [ 990.0, 232.5, 50.0, 18.0 ],
									"numoutlets" : 2,
									"id" : "obj-155",
									"fontname" : "Trebuchet MS",
									"outlettype" : [ "float", "bang" ],
									"fontsize" : 10.0
								}

							}
, 							{
								"box" : 								{
									"maxclass" : "newobj",
									"text" : "* 1.",
									"numinlets" : 2,
									"patching_rect" : [ 945.0, 232.5, 32.5, 18.0 ],
									"numoutlets" : 1,
									"id" : "obj-153",
									"fontname" : "Trebuchet MS",
									"outlettype" : [ "float" ],
									"fontsize" : 10.0
								}

							}
, 							{
								"box" : 								{
									"maxclass" : "flonum",
									"numinlets" : 1,
									"patching_rect" : [ 907.5, 210.0, 50.0, 18.0 ],
									"numoutlets" : 2,
									"id" : "obj-148",
									"fontname" : "Trebuchet MS",
									"outlettype" : [ "float", "bang" ],
									"fontsize" : 10.0
								}

							}
, 							{
								"box" : 								{
									"maxclass" : "newobj",
									"text" : "expr ($f1-0.25) / 0.75",
									"numinlets" : 1,
									"patching_rect" : [ 900.0, 187.5, 109.0, 18.0 ],
									"numoutlets" : 1,
									"id" : "obj-146",
									"fontname" : "Trebuchet MS",
									"outlettype" : [ "" ],
									"fontsize" : 10.0
								}

							}
, 							{
								"box" : 								{
									"maxclass" : "flonum",
									"numinlets" : 1,
									"patching_rect" : [ 802.5, 210.0, 50.0, 18.0 ],
									"numoutlets" : 2,
									"id" : "obj-145",
									"fontname" : "Trebuchet MS",
									"outlettype" : [ "float", "bang" ],
									"fontsize" : 10.0
								}

							}
, 							{
								"box" : 								{
									"maxclass" : "newobj",
									"text" : "if $f1>0.25 then $f1 else 0.25",
									"numinlets" : 1,
									"patching_rect" : [ 735.0, 165.0, 143.0, 18.0 ],
									"numoutlets" : 1,
									"id" : "obj-143",
									"fontname" : "Trebuchet MS",
									"outlettype" : [ "" ],
									"fontsize" : 10.0
								}

							}
, 							{
								"box" : 								{
									"maxclass" : "newobj",
									"text" : "!/ 0.75",
									"numinlets" : 2,
									"patching_rect" : [ 720.0, 195.0, 42.0, 18.0 ],
									"numoutlets" : 1,
									"id" : "obj-142",
									"fontname" : "Trebuchet MS",
									"outlettype" : [ "float" ],
									"fontsize" : 10.0
								}

							}
, 							{
								"box" : 								{
									"maxclass" : "newobj",
									"text" : "* 50.",
									"numinlets" : 2,
									"patching_rect" : [ 900.0, 247.5, 32.5, 18.0 ],
									"numoutlets" : 1,
									"id" : "obj-141",
									"fontname" : "Trebuchet MS",
									"outlettype" : [ "float" ],
									"fontsize" : 10.0
								}

							}
, 							{
								"box" : 								{
									"maxclass" : "gain~",
									"numinlets" : 2,
									"patching_rect" : [ 427.5, 292.5, 20.0, 140.0 ],
									"numoutlets" : 2,
									"id" : "obj-135",
									"outlettype" : [ "signal", "int" ]
								}

							}
, 							{
								"box" : 								{
									"maxclass" : "button",
									"numinlets" : 1,
									"patching_rect" : [ 352.5, 15.0, 20.0, 20.0 ],
									"numoutlets" : 1,
									"id" : "obj-133",
									"outlettype" : [ "bang" ]
								}

							}
, 							{
								"box" : 								{
									"maxclass" : "flonum",
									"numinlets" : 1,
									"patching_rect" : [ 847.5, 82.5, 50.0, 18.0 ],
									"numoutlets" : 2,
									"id" : "obj-131",
									"fontname" : "Trebuchet MS",
									"outlettype" : [ "float", "bang" ],
									"fontsize" : 10.0
								}

							}
, 							{
								"box" : 								{
									"maxclass" : "newobj",
									"text" : "/ 1.",
									"numinlets" : 2,
									"patching_rect" : [ 847.5, 60.0, 32.5, 18.0 ],
									"numoutlets" : 1,
									"id" : "obj-129",
									"fontname" : "Trebuchet MS",
									"outlettype" : [ "float" ],
									"fontsize" : 10.0
								}

							}
, 							{
								"box" : 								{
									"maxclass" : "newobj",
									"text" : "r #0cP",
									"numinlets" : 0,
									"patching_rect" : [ 847.5, 37.5, 38.0, 18.0 ],
									"numoutlets" : 1,
									"id" : "obj-127",
									"fontname" : "Trebuchet MS",
									"outlettype" : [ "" ],
									"fontsize" : 10.0
								}

							}
, 							{
								"box" : 								{
									"maxclass" : "newobj",
									"text" : "r #0tP",
									"numinlets" : 0,
									"patching_rect" : [ 900.0, 37.5, 37.0, 18.0 ],
									"numoutlets" : 1,
									"id" : "obj-128",
									"fontname" : "Trebuchet MS",
									"outlettype" : [ "" ],
									"fontsize" : 10.0
								}

							}
, 							{
								"box" : 								{
									"maxclass" : "button",
									"numinlets" : 1,
									"patching_rect" : [ 1080.0, 82.5, 20.0, 20.0 ],
									"numoutlets" : 1,
									"id" : "obj-126",
									"outlettype" : [ "bang" ]
								}

							}
, 							{
								"box" : 								{
									"maxclass" : "newobj",
									"text" : "r #0trig",
									"numinlets" : 0,
									"patching_rect" : [ 1080.0, 52.5, 44.0, 18.0 ],
									"numoutlets" : 1,
									"id" : "obj-124",
									"fontname" : "Trebuchet MS",
									"outlettype" : [ "" ],
									"fontsize" : 10.0
								}

							}
, 							{
								"box" : 								{
									"maxclass" : "flonum",
									"numinlets" : 1,
									"patching_rect" : [ 960.0, 82.5, 50.0, 18.0 ],
									"numoutlets" : 2,
									"id" : "obj-122",
									"fontname" : "Trebuchet MS",
									"outlettype" : [ "float", "bang" ],
									"fontsize" : 10.0
								}

							}
, 							{
								"box" : 								{
									"maxclass" : "flonum",
									"numinlets" : 1,
									"patching_rect" : [ 1012.5, 82.5, 50.0, 18.0 ],
									"numoutlets" : 2,
									"id" : "obj-120",
									"fontname" : "Trebuchet MS",
									"outlettype" : [ "float", "bang" ],
									"fontsize" : 10.0
								}

							}
, 							{
								"box" : 								{
									"maxclass" : "newobj",
									"text" : "r #0release",
									"numinlets" : 0,
									"patching_rect" : [ 1012.5, 52.5, 60.0, 18.0 ],
									"numoutlets" : 1,
									"id" : "obj-118",
									"fontname" : "Trebuchet MS",
									"outlettype" : [ "" ],
									"fontsize" : 10.0
								}

							}
, 							{
								"box" : 								{
									"maxclass" : "newobj",
									"text" : "r #0gain",
									"numinlets" : 0,
									"patching_rect" : [ 960.0, 52.5, 46.0, 18.0 ],
									"numoutlets" : 1,
									"id" : "obj-117",
									"fontname" : "Trebuchet MS",
									"outlettype" : [ "" ],
									"fontsize" : 10.0
								}

							}
, 							{
								"box" : 								{
									"maxclass" : "newobj",
									"text" : "r #0cP",
									"numinlets" : 0,
									"patching_rect" : [ 742.5, 60.0, 38.0, 18.0 ],
									"numoutlets" : 1,
									"id" : "obj-111",
									"fontname" : "Trebuchet MS",
									"outlettype" : [ "" ],
									"fontsize" : 10.0
								}

							}
, 							{
								"box" : 								{
									"maxclass" : "newobj",
									"text" : "r #0tP",
									"numinlets" : 0,
									"patching_rect" : [ 795.0, 60.0, 37.0, 18.0 ],
									"numoutlets" : 1,
									"id" : "obj-112",
									"fontname" : "Trebuchet MS",
									"outlettype" : [ "" ],
									"fontsize" : 10.0
								}

							}
, 							{
								"box" : 								{
									"maxclass" : "button",
									"numinlets" : 1,
									"patching_rect" : [ 742.5, 105.0, 20.0, 20.0 ],
									"numoutlets" : 1,
									"id" : "obj-113",
									"outlettype" : [ "bang" ]
								}

							}
, 							{
								"box" : 								{
									"maxclass" : "newobj",
									"text" : "seqBang 0.28",
									"numinlets" : 2,
									"patching_rect" : [ 742.5, 82.5, 69.0, 18.0 ],
									"numoutlets" : 1,
									"id" : "obj-114",
									"fontname" : "Trebuchet MS",
									"outlettype" : [ "bang" ],
									"fontsize" : 10.0
								}

							}
, 							{
								"box" : 								{
									"maxclass" : "newobj",
									"text" : "r #0cP",
									"numinlets" : 0,
									"patching_rect" : [ 652.5, 60.0, 38.0, 18.0 ],
									"numoutlets" : 1,
									"id" : "obj-107",
									"fontname" : "Trebuchet MS",
									"outlettype" : [ "" ],
									"fontsize" : 10.0
								}

							}
, 							{
								"box" : 								{
									"maxclass" : "newobj",
									"text" : "r #0tP",
									"numinlets" : 0,
									"patching_rect" : [ 705.0, 60.0, 37.0, 18.0 ],
									"numoutlets" : 1,
									"id" : "obj-108",
									"fontname" : "Trebuchet MS",
									"outlettype" : [ "" ],
									"fontsize" : 10.0
								}

							}
, 							{
								"box" : 								{
									"maxclass" : "button",
									"numinlets" : 1,
									"patching_rect" : [ 652.5, 105.0, 20.0, 20.0 ],
									"numoutlets" : 1,
									"id" : "obj-109",
									"outlettype" : [ "bang" ]
								}

							}
, 							{
								"box" : 								{
									"maxclass" : "newobj",
									"text" : "seqBang 0.25",
									"numinlets" : 2,
									"patching_rect" : [ 652.5, 82.5, 69.0, 18.0 ],
									"numoutlets" : 1,
									"id" : "obj-110",
									"fontname" : "Trebuchet MS",
									"outlettype" : [ "bang" ],
									"fontsize" : 10.0
								}

							}
, 							{
								"box" : 								{
									"maxclass" : "newobj",
									"text" : "r #0cP",
									"numinlets" : 0,
									"patching_rect" : [ 562.5, 60.0, 38.0, 18.0 ],
									"numoutlets" : 1,
									"id" : "obj-103",
									"fontname" : "Trebuchet MS",
									"outlettype" : [ "" ],
									"fontsize" : 10.0
								}

							}
, 							{
								"box" : 								{
									"maxclass" : "newobj",
									"text" : "r #0tP",
									"numinlets" : 0,
									"patching_rect" : [ 615.0, 60.0, 37.0, 18.0 ],
									"numoutlets" : 1,
									"id" : "obj-104",
									"fontname" : "Trebuchet MS",
									"outlettype" : [ "" ],
									"fontsize" : 10.0
								}

							}
, 							{
								"box" : 								{
									"maxclass" : "button",
									"numinlets" : 1,
									"patching_rect" : [ 562.5, 105.0, 20.0, 20.0 ],
									"numoutlets" : 1,
									"id" : "obj-105",
									"outlettype" : [ "bang" ]
								}

							}
, 							{
								"box" : 								{
									"maxclass" : "newobj",
									"text" : "seqBang 0.04",
									"numinlets" : 2,
									"patching_rect" : [ 562.5, 82.5, 69.0, 18.0 ],
									"numoutlets" : 1,
									"id" : "obj-106",
									"fontname" : "Trebuchet MS",
									"outlettype" : [ "bang" ],
									"fontsize" : 10.0
								}

							}
, 							{
								"box" : 								{
									"maxclass" : "newobj",
									"text" : "s #0cP",
									"numinlets" : 1,
									"patching_rect" : [ 307.5, 150.0, 39.0, 18.0 ],
									"numoutlets" : 0,
									"id" : "obj-87",
									"fontname" : "Trebuchet MS",
									"fontsize" : 10.0
								}

							}
, 							{
								"box" : 								{
									"maxclass" : "newobj",
									"text" : "s #0tP",
									"numinlets" : 1,
									"patching_rect" : [ 367.5, 82.5, 38.0, 18.0 ],
									"numoutlets" : 0,
									"id" : "obj-88",
									"fontname" : "Trebuchet MS",
									"fontsize" : 10.0
								}

							}
, 							{
								"box" : 								{
									"maxclass" : "newobj",
									"text" : "r #0cP",
									"numinlets" : 0,
									"patching_rect" : [ 472.5, 60.0, 38.0, 18.0 ],
									"numoutlets" : 1,
									"id" : "obj-86",
									"fontname" : "Trebuchet MS",
									"outlettype" : [ "" ],
									"fontsize" : 10.0
								}

							}
, 							{
								"box" : 								{
									"maxclass" : "newobj",
									"text" : "r #0tP",
									"numinlets" : 0,
									"patching_rect" : [ 525.0, 60.0, 37.0, 18.0 ],
									"numoutlets" : 1,
									"id" : "obj-85",
									"fontname" : "Trebuchet MS",
									"outlettype" : [ "" ],
									"fontsize" : 10.0
								}

							}
, 							{
								"box" : 								{
									"maxclass" : "button",
									"numinlets" : 1,
									"patching_rect" : [ 472.5, 105.0, 20.0, 20.0 ],
									"numoutlets" : 1,
									"id" : "obj-84",
									"outlettype" : [ "bang" ]
								}

							}
, 							{
								"box" : 								{
									"maxclass" : "newobj",
									"text" : "seqBang 0.01",
									"numinlets" : 2,
									"patching_rect" : [ 472.5, 82.5, 69.0, 18.0 ],
									"numoutlets" : 1,
									"id" : "obj-82",
									"fontname" : "Trebuchet MS",
									"outlettype" : [ "bang" ],
									"fontsize" : 10.0
								}

							}
, 							{
								"box" : 								{
									"maxclass" : "flonum",
									"numinlets" : 1,
									"patching_rect" : [ 307.5, 127.5, 50.0, 18.0 ],
									"numoutlets" : 2,
									"id" : "obj-70",
									"fontname" : "Trebuchet MS",
									"outlettype" : [ "float", "bang" ],
									"fontsize" : 10.0
								}

							}
, 							{
								"box" : 								{
									"maxclass" : "newobj",
									"text" : "clocker",
									"numinlets" : 2,
									"patching_rect" : [ 307.5, 105.0, 43.0, 18.0 ],
									"numoutlets" : 1,
									"id" : "obj-68",
									"fontname" : "Trebuchet MS",
									"outlettype" : [ "float" ],
									"fontsize" : 10.0
								}

							}
, 							{
								"box" : 								{
									"maxclass" : "newobj",
									"text" : "!/ 1000.",
									"numinlets" : 2,
									"patching_rect" : [ 345.0, 60.0, 47.0, 18.0 ],
									"numoutlets" : 1,
									"id" : "obj-64",
									"fontname" : "Trebuchet MS",
									"outlettype" : [ "float" ],
									"fontsize" : 10.0
								}

							}
, 							{
								"box" : 								{
									"maxclass" : "flonum",
									"numinlets" : 1,
									"patching_rect" : [ 345.0, 37.5, 50.0, 18.0 ],
									"numoutlets" : 2,
									"id" : "obj-63",
									"fontname" : "Trebuchet MS",
									"outlettype" : [ "float", "bang" ],
									"fontsize" : 10.0
								}

							}
, 							{
								"box" : 								{
									"maxclass" : "inlet",
									"numinlets" : 0,
									"patching_rect" : [ 210.0, 15.0, 25.0, 25.0 ],
									"numoutlets" : 1,
									"id" : "obj-61",
									"outlettype" : [ "" ],
									"comment" : ""
								}

							}
, 							{
								"box" : 								{
									"maxclass" : "toggle",
									"numinlets" : 1,
									"patching_rect" : [ 292.5, 60.0, 20.0, 20.0 ],
									"numoutlets" : 1,
									"id" : "obj-40",
									"outlettype" : [ "int" ]
								}

							}
, 							{
								"box" : 								{
									"maxclass" : "newobj",
									"text" : "metro 900",
									"numinlets" : 2,
									"patching_rect" : [ 307.5, 82.5, 56.0, 18.0 ],
									"numoutlets" : 1,
									"id" : "obj-38",
									"fontname" : "Trebuchet MS",
									"outlettype" : [ "bang" ],
									"fontsize" : 10.0
								}

							}
, 							{
								"box" : 								{
									"maxclass" : "message",
									"text" : "maxsustain 1000",
									"numinlets" : 2,
									"patching_rect" : [ 508.0, 517.5, 84.0, 16.0 ],
									"numoutlets" : 1,
									"id" : "obj-33",
									"fontname" : "Trebuchet MS",
									"outlettype" : [ "" ],
									"fontsize" : 10.0
								}

							}
, 							{
								"box" : 								{
									"maxclass" : "newobj",
									"text" : "*~ 0.1",
									"numinlets" : 2,
									"patching_rect" : [ 390.0, 502.5, 37.0, 18.0 ],
									"numoutlets" : 1,
									"id" : "obj-31",
									"fontname" : "Trebuchet MS",
									"outlettype" : [ "signal" ],
									"fontsize" : 10.0
								}

							}
, 							{
								"box" : 								{
									"maxclass" : "newobj",
									"text" : "*~",
									"numinlets" : 2,
									"patching_rect" : [ 457.5, 525.0, 32.5, 18.0 ],
									"numoutlets" : 1,
									"id" : "obj-30",
									"fontname" : "Trebuchet MS",
									"outlettype" : [ "signal" ],
									"fontsize" : 10.0
								}

							}
, 							{
								"box" : 								{
									"maxclass" : "message",
									"text" : "1.",
									"numinlets" : 2,
									"patching_rect" : [ 465.0, 450.0, 32.5, 16.0 ],
									"numoutlets" : 1,
									"id" : "obj-29",
									"fontname" : "Trebuchet MS",
									"outlettype" : [ "" ],
									"fontsize" : 10.0
								}

							}
, 							{
								"box" : 								{
									"maxclass" : "comment",
									"text" : "release (ms)",
									"numinlets" : 1,
									"patching_rect" : [ 575.5, 453.274475, 73.0, 20.0 ],
									"numoutlets" : 0,
									"id" : "obj-24",
									"fontname" : "Arial",
									"fontsize" : 11.595187
								}

							}
, 							{
								"box" : 								{
									"maxclass" : "comment",
									"text" : "sustain (factor of amplitude - ie, 0.6 = 60%)",
									"numinlets" : 1,
									"patching_rect" : [ 560.5, 429.682983, 230.0, 20.0 ],
									"numoutlets" : 0,
									"id" : "obj-25",
									"fontname" : "Arial",
									"fontsize" : 11.595187
								}

							}
, 							{
								"box" : 								{
									"maxclass" : "comment",
									"text" : "decay (ms)",
									"numinlets" : 1,
									"patching_rect" : [ 546.5, 406.091492, 66.0, 20.0 ],
									"numoutlets" : 0,
									"id" : "obj-27",
									"fontname" : "Arial",
									"fontsize" : 11.595187
								}

							}
, 							{
								"box" : 								{
									"maxclass" : "flonum",
									"numinlets" : 1,
									"patching_rect" : [ 523.5, 453.274475, 50.0, 20.0 ],
									"numoutlets" : 2,
									"id" : "obj-34",
									"fontname" : "Arial",
									"outlettype" : [ "float", "bang" ],
									"fontsize" : 11.595187
								}

							}
, 							{
								"box" : 								{
									"maxclass" : "flonum",
									"numinlets" : 1,
									"patching_rect" : [ 509.5, 429.682983, 50.0, 20.0 ],
									"numoutlets" : 2,
									"id" : "obj-35",
									"fontname" : "Arial",
									"outlettype" : [ "float", "bang" ],
									"fontsize" : 11.595187
								}

							}
, 							{
								"box" : 								{
									"maxclass" : "flonum",
									"numinlets" : 1,
									"patching_rect" : [ 495.5, 406.091492, 50.0, 20.0 ],
									"numoutlets" : 2,
									"id" : "obj-36",
									"fontname" : "Arial",
									"outlettype" : [ "float", "bang" ],
									"fontsize" : 11.595187
								}

							}
, 							{
								"box" : 								{
									"maxclass" : "flonum",
									"numinlets" : 1,
									"patching_rect" : [ 481.5, 382.5, 50.0, 20.0 ],
									"numoutlets" : 2,
									"id" : "obj-37",
									"fontname" : "Arial",
									"outlettype" : [ "float", "bang" ],
									"fontsize" : 11.595187
								}

							}
, 							{
								"box" : 								{
									"maxclass" : "newobj",
									"text" : "adsr~ @maxsustain 0",
									"numinlets" : 5,
									"patching_rect" : [ 467.5, 479.721283, 123.0, 20.0 ],
									"numoutlets" : 4,
									"id" : "obj-41",
									"fontname" : "Arial",
									"outlettype" : [ "signal", "signal", "", "" ],
									"fontsize" : 11.595187
								}

							}
, 							{
								"box" : 								{
									"maxclass" : "comment",
									"text" : "attack (ms)",
									"numinlets" : 1,
									"patching_rect" : [ 530.5, 382.5, 66.0, 20.0 ],
									"numoutlets" : 0,
									"id" : "obj-43",
									"fontname" : "Arial",
									"fontsize" : 11.595187
								}

							}
, 							{
								"box" : 								{
									"maxclass" : "newobj",
									"text" : "pink~",
									"numinlets" : 1,
									"patching_rect" : [ 375.0, 225.0, 35.0, 18.0 ],
									"numoutlets" : 1,
									"id" : "obj-9",
									"fontname" : "Trebuchet MS",
									"outlettype" : [ "signal" ],
									"fontsize" : 10.0
								}

							}
, 							{
								"box" : 								{
									"maxclass" : "comment",
									"text" : "pitch ramp",
									"numinlets" : 1,
									"patching_rect" : [ 240.0, 420.0, 59.0, 18.0 ],
									"numoutlets" : 0,
									"id" : "obj-8",
									"fontname" : "Trebuchet MS",
									"fontsize" : 10.0
								}

							}
, 							{
								"box" : 								{
									"maxclass" : "comment",
									"text" : "gain",
									"numinlets" : 1,
									"patching_rect" : [ 202.5, 225.0, 45.0, 18.0 ],
									"numoutlets" : 0,
									"id" : "obj-5",
									"fontname" : "Trebuchet MS",
									"fontsize" : 10.0
								}

							}
, 							{
								"box" : 								{
									"maxclass" : "comment",
									"text" : "release time",
									"numinlets" : 1,
									"patching_rect" : [ 7.5, 247.5, 70.0, 18.0 ],
									"numoutlets" : 0,
									"id" : "obj-3",
									"fontname" : "Trebuchet MS",
									"fontsize" : 10.0
								}

							}
, 							{
								"box" : 								{
									"maxclass" : "message",
									"text" : "40",
									"numinlets" : 2,
									"patching_rect" : [ 217.5, 367.5, 32.5, 16.0 ],
									"numoutlets" : 1,
									"id" : "obj-7",
									"fontname" : "Trebuchet MS",
									"outlettype" : [ "" ],
									"fontsize" : 10.0
								}

							}
, 							{
								"box" : 								{
									"maxclass" : "message",
									"text" : "1000",
									"numinlets" : 2,
									"patching_rect" : [ 82.5, 247.5, 32.5, 16.0 ],
									"numoutlets" : 1,
									"id" : "obj-6",
									"fontname" : "Trebuchet MS",
									"outlettype" : [ "" ],
									"fontsize" : 10.0
								}

							}
, 							{
								"box" : 								{
									"maxclass" : "message",
									"text" : "200",
									"numinlets" : 2,
									"patching_rect" : [ 180.0, 367.5, 32.5, 16.0 ],
									"numoutlets" : 1,
									"id" : "obj-4",
									"fontname" : "Trebuchet MS",
									"outlettype" : [ "" ],
									"fontsize" : 10.0
								}

							}
, 							{
								"box" : 								{
									"maxclass" : "outlet",
									"numinlets" : 1,
									"patching_rect" : [ 165.0, 525.0, 25.0, 25.0 ],
									"numoutlets" : 0,
									"id" : "obj-22",
									"comment" : ""
								}

							}
, 							{
								"box" : 								{
									"maxclass" : "inlet",
									"numinlets" : 0,
									"patching_rect" : [ 165.5, 67.5, 25.0, 25.0 ],
									"numoutlets" : 1,
									"id" : "obj-21",
									"outlettype" : [ "bang" ],
									"comment" : ""
								}

							}
, 							{
								"box" : 								{
									"maxclass" : "newobj",
									"text" : "pack f f f",
									"numinlets" : 3,
									"patching_rect" : [ 180.0, 390.0, 51.0, 18.0 ],
									"numoutlets" : 1,
									"id" : "obj-20",
									"fontname" : "Trebuchet MS",
									"outlettype" : [ "" ],
									"fontsize" : 10.0
								}

							}
, 							{
								"box" : 								{
									"maxclass" : "newobj",
									"text" : "t b b b",
									"numinlets" : 1,
									"patching_rect" : [ 180.0, 345.0, 46.0, 18.0 ],
									"numoutlets" : 3,
									"id" : "obj-17",
									"fontname" : "Trebuchet MS",
									"outlettype" : [ "bang", "bang", "bang" ],
									"fontsize" : 10.0
								}

							}
, 							{
								"box" : 								{
									"maxclass" : "newobj",
									"text" : "randgen 10",
									"numinlets" : 3,
									"patching_rect" : [ 253.0, 367.5, 60.0, 18.0 ],
									"numoutlets" : 1,
									"id" : "obj-16",
									"fontname" : "Trebuchet MS",
									"outlettype" : [ "float" ],
									"fontsize" : 10.0
								}

							}
, 							{
								"box" : 								{
									"maxclass" : "newobj",
									"text" : "prepend set",
									"numinlets" : 1,
									"patching_rect" : [ 82.5, 270.0, 64.0, 18.0 ],
									"numoutlets" : 1,
									"id" : "obj-11",
									"fontname" : "Trebuchet MS",
									"outlettype" : [ "" ],
									"fontsize" : 10.0
								}

							}
, 							{
								"box" : 								{
									"maxclass" : "newobj",
									"text" : "append 50",
									"numinlets" : 1,
									"patching_rect" : [ 165.5, 292.5, 57.0, 18.0 ],
									"numoutlets" : 1,
									"id" : "obj-10",
									"fontname" : "Trebuchet MS",
									"outlettype" : [ "" ],
									"fontsize" : 10.0
								}

							}
, 							{
								"box" : 								{
									"maxclass" : "newobj",
									"text" : "*~ 0.",
									"numinlets" : 2,
									"patching_rect" : [ 165.0, 502.5, 32.5, 18.0 ],
									"numoutlets" : 1,
									"id" : "obj-2",
									"fontname" : "Trebuchet MS",
									"outlettype" : [ "signal" ],
									"fontsize" : 10.0
								}

							}
, 							{
								"box" : 								{
									"maxclass" : "newobj",
									"text" : "randgen 0.4 0.5",
									"numinlets" : 3,
									"patching_rect" : [ 165.5, 247.5, 81.0, 18.0 ],
									"numoutlets" : 1,
									"id" : "obj-273",
									"fontname" : "Trebuchet MS",
									"outlettype" : [ "float" ],
									"fontsize" : 10.0
								}

							}
, 							{
								"box" : 								{
									"maxclass" : "button",
									"numinlets" : 1,
									"patching_rect" : [ 165.5, 202.0, 21.0, 21.0 ],
									"numoutlets" : 1,
									"id" : "obj-255",
									"outlettype" : [ "bang" ]
								}

							}
, 							{
								"box" : 								{
									"maxclass" : "message",
									"text" : "0, $1 10 0",
									"numinlets" : 2,
									"patching_rect" : [ 165.5, 270.0, 55.0, 16.0 ],
									"numoutlets" : 1,
									"id" : "obj-251",
									"fontname" : "Trebuchet MS",
									"outlettype" : [ "" ],
									"fontsize" : 10.0
								}

							}
, 							{
								"box" : 								{
									"maxclass" : "newobj",
									"text" : "line~",
									"numinlets" : 2,
									"patching_rect" : [ 165.5, 315.0, 32.5, 18.0 ],
									"numoutlets" : 2,
									"id" : "obj-252",
									"fontname" : "Trebuchet MS",
									"outlettype" : [ "signal", "bang" ],
									"fontsize" : 10.0
								}

							}
, 							{
								"box" : 								{
									"maxclass" : "newobj",
									"text" : "t b b",
									"numinlets" : 1,
									"patching_rect" : [ 165.5, 225.0, 33.5, 18.0 ],
									"numoutlets" : 2,
									"id" : "obj-249",
									"fontname" : "Trebuchet MS",
									"outlettype" : [ "bang", "bang" ],
									"fontsize" : 10.0
								}

							}
, 							{
								"box" : 								{
									"maxclass" : "message",
									"text" : "$1, $2 $3",
									"numinlets" : 2,
									"patching_rect" : [ 180.0, 419.5, 52.0, 16.0 ],
									"numoutlets" : 1,
									"id" : "obj-248",
									"fontname" : "Trebuchet MS",
									"outlettype" : [ "" ],
									"fontsize" : 10.0
								}

							}
, 							{
								"box" : 								{
									"maxclass" : "newobj",
									"text" : "line~",
									"numinlets" : 2,
									"patching_rect" : [ 180.0, 442.0, 32.5, 18.0 ],
									"numoutlets" : 2,
									"id" : "obj-246",
									"fontname" : "Trebuchet MS",
									"outlettype" : [ "signal", "bang" ],
									"fontsize" : 10.0
								}

							}
, 							{
								"box" : 								{
									"maxclass" : "newobj",
									"text" : "cycle~",
									"numinlets" : 2,
									"patching_rect" : [ 180.0, 472.0, 39.0, 18.0 ],
									"numoutlets" : 1,
									"id" : "obj-245",
									"fontname" : "Trebuchet MS",
									"outlettype" : [ "signal" ],
									"fontsize" : 10.0
								}

							}
 ],
						"lines" : [ 							{
								"patchline" : 								{
									"source" : [ "obj-174", 0 ],
									"destination" : [ "obj-34", 0 ],
									"hidden" : 0,
									"midpoints" : [  ]
								}

							}
, 							{
								"patchline" : 								{
									"source" : [ "obj-171", 0 ],
									"destination" : [ "obj-174", 0 ],
									"hidden" : 0,
									"midpoints" : [  ]
								}

							}
, 							{
								"patchline" : 								{
									"source" : [ "obj-148", 0 ],
									"destination" : [ "obj-169", 1 ],
									"hidden" : 0,
									"midpoints" : [  ]
								}

							}
, 							{
								"patchline" : 								{
									"source" : [ "obj-9", 0 ],
									"destination" : [ "obj-169", 0 ],
									"hidden" : 0,
									"midpoints" : [  ]
								}

							}
, 							{
								"patchline" : 								{
									"source" : [ "obj-169", 0 ],
									"destination" : [ "obj-135", 0 ],
									"hidden" : 0,
									"midpoints" : [  ]
								}

							}
, 							{
								"patchline" : 								{
									"source" : [ "obj-173", 0 ],
									"destination" : [ "obj-169", 2 ],
									"hidden" : 0,
									"midpoints" : [  ]
								}

							}
, 							{
								"patchline" : 								{
									"source" : [ "obj-148", 0 ],
									"destination" : [ "obj-170", 1 ],
									"hidden" : 0,
									"midpoints" : [  ]
								}

							}
, 							{
								"patchline" : 								{
									"source" : [ "obj-9", 0 ],
									"destination" : [ "obj-170", 0 ],
									"hidden" : 0,
									"midpoints" : [  ]
								}

							}
, 							{
								"patchline" : 								{
									"source" : [ "obj-170", 0 ],
									"destination" : [ "obj-135", 0 ],
									"hidden" : 0,
									"midpoints" : [  ]
								}

							}
, 							{
								"patchline" : 								{
									"source" : [ "obj-173", 0 ],
									"destination" : [ "obj-170", 2 ],
									"hidden" : 0,
									"midpoints" : [  ]
								}

							}
, 							{
								"patchline" : 								{
									"source" : [ "obj-166", 0 ],
									"destination" : [ "obj-135", 0 ],
									"hidden" : 0,
									"midpoints" : [  ]
								}

							}
, 							{
								"patchline" : 								{
									"source" : [ "obj-148", 0 ],
									"destination" : [ "obj-166", 1 ],
									"hidden" : 0,
									"midpoints" : [  ]
								}

							}
, 							{
								"patchline" : 								{
									"source" : [ "obj-9", 0 ],
									"destination" : [ "obj-166", 0 ],
									"hidden" : 0,
									"midpoints" : [  ]
								}

							}
, 							{
								"patchline" : 								{
									"source" : [ "obj-173", 0 ],
									"destination" : [ "obj-166", 2 ],
									"hidden" : 0,
									"midpoints" : [  ]
								}

							}
, 							{
								"patchline" : 								{
									"source" : [ "obj-165", 0 ],
									"destination" : [ "obj-135", 0 ],
									"hidden" : 0,
									"midpoints" : [  ]
								}

							}
, 							{
								"patchline" : 								{
									"source" : [ "obj-9", 0 ],
									"destination" : [ "obj-165", 0 ],
									"hidden" : 0,
									"midpoints" : [  ]
								}

							}
, 							{
								"patchline" : 								{
									"source" : [ "obj-148", 0 ],
									"destination" : [ "obj-165", 1 ],
									"hidden" : 0,
									"midpoints" : [  ]
								}

							}
, 							{
								"patchline" : 								{
									"source" : [ "obj-173", 0 ],
									"destination" : [ "obj-165", 2 ],
									"hidden" : 0,
									"midpoints" : [  ]
								}

							}
, 							{
								"patchline" : 								{
									"source" : [ "obj-109", 0 ],
									"destination" : [ "obj-29", 0 ],
									"hidden" : 0,
									"midpoints" : [  ]
								}

							}
, 							{
								"patchline" : 								{
									"source" : [ "obj-135", 0 ],
									"destination" : [ "obj-30", 0 ],
									"hidden" : 0,
									"midpoints" : [  ]
								}

							}
, 							{
								"patchline" : 								{
									"source" : [ "obj-148", 0 ],
									"destination" : [ "obj-153", 1 ],
									"hidden" : 0,
									"midpoints" : [  ]
								}

							}
, 							{
								"patchline" : 								{
									"source" : [ "obj-148", 0 ],
									"destination" : [ "obj-153", 0 ],
									"hidden" : 0,
									"midpoints" : [  ]
								}

							}
, 							{
								"patchline" : 								{
									"source" : [ "obj-153", 0 ],
									"destination" : [ "obj-141", 0 ],
									"hidden" : 0,
									"midpoints" : [  ]
								}

							}
, 							{
								"patchline" : 								{
									"source" : [ "obj-155", 0 ],
									"destination" : [ "obj-141", 1 ],
									"hidden" : 0,
									"midpoints" : [  ]
								}

							}
, 							{
								"patchline" : 								{
									"source" : [ "obj-146", 0 ],
									"destination" : [ "obj-148", 0 ],
									"hidden" : 0,
									"midpoints" : [  ]
								}

							}
, 							{
								"patchline" : 								{
									"source" : [ "obj-143", 0 ],
									"destination" : [ "obj-146", 0 ],
									"hidden" : 0,
									"midpoints" : [  ]
								}

							}
, 							{
								"patchline" : 								{
									"source" : [ "obj-143", 0 ],
									"destination" : [ "obj-145", 0 ],
									"hidden" : 0,
									"midpoints" : [  ]
								}

							}
, 							{
								"patchline" : 								{
									"source" : [ "obj-131", 0 ],
									"destination" : [ "obj-143", 0 ],
									"hidden" : 0,
									"midpoints" : [  ]
								}

							}
, 							{
								"patchline" : 								{
									"source" : [ "obj-40", 0 ],
									"destination" : [ "obj-133", 0 ],
									"hidden" : 0,
									"midpoints" : [  ]
								}

							}
, 							{
								"patchline" : 								{
									"source" : [ "obj-133", 0 ],
									"destination" : [ "obj-63", 0 ],
									"hidden" : 0,
									"midpoints" : [  ]
								}

							}
, 							{
								"patchline" : 								{
									"source" : [ "obj-64", 0 ],
									"destination" : [ "obj-88", 0 ],
									"hidden" : 0,
									"midpoints" : [  ]
								}

							}
, 							{
								"patchline" : 								{
									"source" : [ "obj-40", 0 ],
									"destination" : [ "obj-68", 0 ],
									"hidden" : 0,
									"midpoints" : [  ]
								}

							}
, 							{
								"patchline" : 								{
									"source" : [ "obj-129", 0 ],
									"destination" : [ "obj-131", 0 ],
									"hidden" : 0,
									"midpoints" : [  ]
								}

							}
, 							{
								"patchline" : 								{
									"source" : [ "obj-128", 0 ],
									"destination" : [ "obj-129", 1 ],
									"hidden" : 0,
									"midpoints" : [  ]
								}

							}
, 							{
								"patchline" : 								{
									"source" : [ "obj-127", 0 ],
									"destination" : [ "obj-129", 0 ],
									"hidden" : 0,
									"midpoints" : [  ]
								}

							}
, 							{
								"patchline" : 								{
									"source" : [ "obj-124", 0 ],
									"destination" : [ "obj-126", 0 ],
									"hidden" : 0,
									"midpoints" : [  ]
								}

							}
, 							{
								"patchline" : 								{
									"source" : [ "obj-118", 0 ],
									"destination" : [ "obj-120", 0 ],
									"hidden" : 0,
									"midpoints" : [  ]
								}

							}
, 							{
								"patchline" : 								{
									"source" : [ "obj-117", 0 ],
									"destination" : [ "obj-122", 0 ],
									"hidden" : 0,
									"midpoints" : [  ]
								}

							}
, 							{
								"patchline" : 								{
									"source" : [ "obj-109", 0 ],
									"destination" : [ "obj-255", 0 ],
									"hidden" : 0,
									"midpoints" : [  ]
								}

							}
, 							{
								"patchline" : 								{
									"source" : [ "obj-105", 0 ],
									"destination" : [ "obj-255", 0 ],
									"hidden" : 0,
									"midpoints" : [  ]
								}

							}
, 							{
								"patchline" : 								{
									"source" : [ "obj-112", 0 ],
									"destination" : [ "obj-114", 1 ],
									"hidden" : 0,
									"midpoints" : [  ]
								}

							}
, 							{
								"patchline" : 								{
									"source" : [ "obj-111", 0 ],
									"destination" : [ "obj-114", 0 ],
									"hidden" : 0,
									"midpoints" : [  ]
								}

							}
, 							{
								"patchline" : 								{
									"source" : [ "obj-114", 0 ],
									"destination" : [ "obj-113", 0 ],
									"hidden" : 0,
									"midpoints" : [  ]
								}

							}
, 							{
								"patchline" : 								{
									"source" : [ "obj-110", 0 ],
									"destination" : [ "obj-109", 0 ],
									"hidden" : 0,
									"midpoints" : [  ]
								}

							}
, 							{
								"patchline" : 								{
									"source" : [ "obj-107", 0 ],
									"destination" : [ "obj-110", 0 ],
									"hidden" : 0,
									"midpoints" : [  ]
								}

							}
, 							{
								"patchline" : 								{
									"source" : [ "obj-108", 0 ],
									"destination" : [ "obj-110", 1 ],
									"hidden" : 0,
									"midpoints" : [  ]
								}

							}
, 							{
								"patchline" : 								{
									"source" : [ "obj-106", 0 ],
									"destination" : [ "obj-105", 0 ],
									"hidden" : 0,
									"midpoints" : [  ]
								}

							}
, 							{
								"patchline" : 								{
									"source" : [ "obj-103", 0 ],
									"destination" : [ "obj-106", 0 ],
									"hidden" : 0,
									"midpoints" : [  ]
								}

							}
, 							{
								"patchline" : 								{
									"source" : [ "obj-104", 0 ],
									"destination" : [ "obj-106", 1 ],
									"hidden" : 0,
									"midpoints" : [  ]
								}

							}
, 							{
								"patchline" : 								{
									"source" : [ "obj-85", 0 ],
									"destination" : [ "obj-82", 1 ],
									"hidden" : 0,
									"midpoints" : [  ]
								}

							}
, 							{
								"patchline" : 								{
									"source" : [ "obj-86", 0 ],
									"destination" : [ "obj-82", 0 ],
									"hidden" : 0,
									"midpoints" : [  ]
								}

							}
, 							{
								"patchline" : 								{
									"source" : [ "obj-68", 0 ],
									"destination" : [ "obj-87", 0 ],
									"hidden" : 0,
									"midpoints" : [  ]
								}

							}
, 							{
								"patchline" : 								{
									"source" : [ "obj-82", 0 ],
									"destination" : [ "obj-84", 0 ],
									"hidden" : 0,
									"midpoints" : [  ]
								}

							}
, 							{
								"patchline" : 								{
									"source" : [ "obj-84", 0 ],
									"destination" : [ "obj-255", 0 ],
									"hidden" : 0,
									"midpoints" : [  ]
								}

							}
, 							{
								"patchline" : 								{
									"source" : [ "obj-68", 0 ],
									"destination" : [ "obj-70", 0 ],
									"hidden" : 0,
									"midpoints" : [  ]
								}

							}
, 							{
								"patchline" : 								{
									"source" : [ "obj-38", 0 ],
									"destination" : [ "obj-68", 0 ],
									"hidden" : 0,
									"midpoints" : [  ]
								}

							}
, 							{
								"patchline" : 								{
									"source" : [ "obj-38", 0 ],
									"destination" : [ "obj-68", 1 ],
									"hidden" : 0,
									"midpoints" : [  ]
								}

							}
, 							{
								"patchline" : 								{
									"source" : [ "obj-63", 0 ],
									"destination" : [ "obj-64", 0 ],
									"hidden" : 0,
									"midpoints" : [  ]
								}

							}
, 							{
								"patchline" : 								{
									"source" : [ "obj-64", 0 ],
									"destination" : [ "obj-38", 1 ],
									"hidden" : 0,
									"midpoints" : [  ]
								}

							}
, 							{
								"patchline" : 								{
									"source" : [ "obj-40", 0 ],
									"destination" : [ "obj-38", 0 ],
									"hidden" : 0,
									"midpoints" : [  ]
								}

							}
, 							{
								"patchline" : 								{
									"source" : [ "obj-34", 0 ],
									"destination" : [ "obj-41", 4 ],
									"hidden" : 0,
									"midpoints" : [  ]
								}

							}
, 							{
								"patchline" : 								{
									"source" : [ "obj-35", 0 ],
									"destination" : [ "obj-41", 3 ],
									"hidden" : 0,
									"midpoints" : [  ]
								}

							}
, 							{
								"patchline" : 								{
									"source" : [ "obj-36", 0 ],
									"destination" : [ "obj-41", 2 ],
									"hidden" : 0,
									"midpoints" : [  ]
								}

							}
, 							{
								"patchline" : 								{
									"source" : [ "obj-37", 0 ],
									"destination" : [ "obj-41", 1 ],
									"hidden" : 0,
									"midpoints" : [  ]
								}

							}
, 							{
								"patchline" : 								{
									"source" : [ "obj-29", 0 ],
									"destination" : [ "obj-41", 0 ],
									"hidden" : 0,
									"midpoints" : [  ]
								}

							}
, 							{
								"patchline" : 								{
									"source" : [ "obj-41", 0 ],
									"destination" : [ "obj-30", 1 ],
									"hidden" : 0,
									"midpoints" : [  ]
								}

							}
, 							{
								"patchline" : 								{
									"source" : [ "obj-33", 0 ],
									"destination" : [ "obj-41", 0 ],
									"hidden" : 0,
									"midpoints" : [  ]
								}

							}
, 							{
								"patchline" : 								{
									"source" : [ "obj-30", 0 ],
									"destination" : [ "obj-22", 0 ],
									"hidden" : 0,
									"midpoints" : [  ]
								}

							}
, 							{
								"patchline" : 								{
									"source" : [ "obj-7", 0 ],
									"destination" : [ "obj-20", 1 ],
									"hidden" : 0,
									"midpoints" : [  ]
								}

							}
, 							{
								"patchline" : 								{
									"source" : [ "obj-6", 0 ],
									"destination" : [ "obj-11", 0 ],
									"hidden" : 0,
									"midpoints" : [  ]
								}

							}
, 							{
								"patchline" : 								{
									"source" : [ "obj-4", 0 ],
									"destination" : [ "obj-20", 0 ],
									"hidden" : 0,
									"midpoints" : [  ]
								}

							}
, 							{
								"patchline" : 								{
									"source" : [ "obj-273", 0 ],
									"destination" : [ "obj-251", 0 ],
									"hidden" : 0,
									"midpoints" : [  ]
								}

							}
, 							{
								"patchline" : 								{
									"source" : [ "obj-255", 0 ],
									"destination" : [ "obj-6", 0 ],
									"hidden" : 0,
									"midpoints" : [  ]
								}

							}
, 							{
								"patchline" : 								{
									"source" : [ "obj-255", 0 ],
									"destination" : [ "obj-249", 0 ],
									"hidden" : 0,
									"midpoints" : [  ]
								}

							}
, 							{
								"patchline" : 								{
									"source" : [ "obj-252", 0 ],
									"destination" : [ "obj-2", 0 ],
									"hidden" : 0,
									"midpoints" : [  ]
								}

							}
, 							{
								"patchline" : 								{
									"source" : [ "obj-251", 0 ],
									"destination" : [ "obj-10", 0 ],
									"hidden" : 0,
									"midpoints" : [  ]
								}

							}
, 							{
								"patchline" : 								{
									"source" : [ "obj-249", 0 ],
									"destination" : [ "obj-273", 0 ],
									"hidden" : 0,
									"midpoints" : [  ]
								}

							}
, 							{
								"patchline" : 								{
									"source" : [ "obj-249", 1 ],
									"destination" : [ "obj-17", 0 ],
									"hidden" : 0,
									"midpoints" : [  ]
								}

							}
, 							{
								"patchline" : 								{
									"source" : [ "obj-248", 0 ],
									"destination" : [ "obj-246", 0 ],
									"hidden" : 0,
									"midpoints" : [  ]
								}

							}
, 							{
								"patchline" : 								{
									"source" : [ "obj-246", 0 ],
									"destination" : [ "obj-245", 0 ],
									"hidden" : 0,
									"midpoints" : [  ]
								}

							}
, 							{
								"patchline" : 								{
									"source" : [ "obj-245", 0 ],
									"destination" : [ "obj-2", 1 ],
									"hidden" : 0,
									"midpoints" : [  ]
								}

							}
, 							{
								"patchline" : 								{
									"source" : [ "obj-21", 0 ],
									"destination" : [ "obj-255", 0 ],
									"hidden" : 0,
									"midpoints" : [  ]
								}

							}
, 							{
								"patchline" : 								{
									"source" : [ "obj-20", 0 ],
									"destination" : [ "obj-248", 0 ],
									"hidden" : 0,
									"midpoints" : [  ]
								}

							}
, 							{
								"patchline" : 								{
									"source" : [ "obj-2", 0 ],
									"destination" : [ "obj-22", 0 ],
									"hidden" : 0,
									"midpoints" : [  ]
								}

							}
, 							{
								"patchline" : 								{
									"source" : [ "obj-17", 0 ],
									"destination" : [ "obj-7", 0 ],
									"hidden" : 0,
									"midpoints" : [  ]
								}

							}
, 							{
								"patchline" : 								{
									"source" : [ "obj-17", 0 ],
									"destination" : [ "obj-4", 0 ],
									"hidden" : 0,
									"midpoints" : [  ]
								}

							}
, 							{
								"patchline" : 								{
									"source" : [ "obj-17", 2 ],
									"destination" : [ "obj-16", 0 ],
									"hidden" : 0,
									"midpoints" : [  ]
								}

							}
, 							{
								"patchline" : 								{
									"source" : [ "obj-16", 0 ],
									"destination" : [ "obj-20", 2 ],
									"hidden" : 0,
									"midpoints" : [  ]
								}

							}
, 							{
								"patchline" : 								{
									"source" : [ "obj-11", 0 ],
									"destination" : [ "obj-10", 0 ],
									"hidden" : 0,
									"midpoints" : [  ]
								}

							}
, 							{
								"patchline" : 								{
									"source" : [ "obj-10", 0 ],
									"destination" : [ "obj-252", 0 ],
									"hidden" : 0,
									"midpoints" : [  ]
								}

							}
 ]
					}
,
					"saved_object_attributes" : 					{
						"default_fontname" : "Trebuchet MS",
						"fontname" : "Trebuchet MS",
						"default_fontsize" : 10.0,
						"globalpatchername" : "",
						"fontface" : 0,
						"fontsize" : 10.0,
						"default_fontface" : 0
					}

				}

			}
, 			{
				"box" : 				{
					"maxclass" : "newobj",
					"text" : "line~",
					"numinlets" : 2,
					"patching_rect" : [ 796.0, 493.0, 36.0, 20.0 ],
					"numoutlets" : 2,
					"id" : "obj-69",
					"fontname" : "Arial",
					"outlettype" : [ "signal", "bang" ],
					"fontsize" : 12.0
				}

			}
, 			{
				"box" : 				{
					"maxclass" : "flonum",
					"numinlets" : 1,
					"patching_rect" : [ 834.0, 447.0, 50.0, 20.0 ],
					"numoutlets" : 2,
					"id" : "obj-68",
					"fontname" : "Arial",
					"outlettype" : [ "float", "bang" ],
					"fontsize" : 12.0
				}

			}
, 			{
				"box" : 				{
					"maxclass" : "newobj",
					"text" : "*~",
					"numinlets" : 2,
					"patching_rect" : [ 574.0, 433.0, 32.5, 20.0 ],
					"numoutlets" : 1,
					"id" : "obj-66",
					"fontname" : "Arial",
					"outlettype" : [ "signal" ],
					"fontsize" : 12.0
				}

			}
, 			{
				"box" : 				{
					"maxclass" : "newobj",
					"text" : "*~",
					"numinlets" : 2,
					"patching_rect" : [ 796.0, 428.0, 32.5, 20.0 ],
					"numoutlets" : 1,
					"id" : "obj-65",
					"fontname" : "Arial",
					"outlettype" : [ "signal" ],
					"fontsize" : 12.0
				}

			}
, 			{
				"box" : 				{
					"maxclass" : "newobj",
					"text" : "lores~ 100 0.1",
					"numinlets" : 3,
					"patching_rect" : [ 693.0, 465.0, 87.0, 20.0 ],
					"numoutlets" : 1,
					"id" : "obj-55",
					"fontname" : "Arial",
					"outlettype" : [ "signal" ],
					"fontsize" : 12.0
				}

			}
, 			{
				"box" : 				{
					"maxclass" : "newobj",
					"text" : "lores~ 100 0.1",
					"numinlets" : 3,
					"patching_rect" : [ 693.0, 434.0, 87.0, 20.0 ],
					"numoutlets" : 1,
					"id" : "obj-56",
					"fontname" : "Arial",
					"outlettype" : [ "signal" ],
					"fontsize" : 12.0
				}

			}
, 			{
				"box" : 				{
					"maxclass" : "newobj",
					"text" : "!-~ 1.",
					"numinlets" : 2,
					"patching_rect" : [ 796.0, 460.0, 38.0, 20.0 ],
					"numoutlets" : 1,
					"id" : "obj-57",
					"fontname" : "Arial",
					"outlettype" : [ "signal" ],
					"fontsize" : 12.0
				}

			}
, 			{
				"box" : 				{
					"maxclass" : "newobj",
					"text" : "*~",
					"numinlets" : 2,
					"patching_rect" : [ 693.0, 493.0, 32.5, 20.0 ],
					"numoutlets" : 1,
					"id" : "obj-59",
					"fontname" : "Arial",
					"outlettype" : [ "signal" ],
					"fontsize" : 12.0
				}

			}
, 			{
				"box" : 				{
					"maxclass" : "newobj",
					"text" : "lores~ 100 0.1",
					"numinlets" : 3,
					"patching_rect" : [ 693.0, 414.0, 87.0, 20.0 ],
					"numoutlets" : 1,
					"id" : "obj-60",
					"fontname" : "Arial",
					"outlettype" : [ "signal" ],
					"fontsize" : 12.0
				}

			}
, 			{
				"box" : 				{
					"maxclass" : "newobj",
					"text" : "*~",
					"numinlets" : 2,
					"patching_rect" : [ 796.0, 404.0, 32.5, 20.0 ],
					"numoutlets" : 1,
					"id" : "obj-61",
					"fontname" : "Arial",
					"outlettype" : [ "signal" ],
					"fontsize" : 12.0
				}

			}
, 			{
				"box" : 				{
					"maxclass" : "newobj",
					"text" : "phasor~",
					"numinlets" : 2,
					"patching_rect" : [ 796.0, 377.0, 54.0, 20.0 ],
					"numoutlets" : 1,
					"id" : "obj-62",
					"fontname" : "Arial",
					"outlettype" : [ "signal" ],
					"fontsize" : 12.0
				}

			}
, 			{
				"box" : 				{
					"maxclass" : "newobj",
					"text" : "p getFreq",
					"numinlets" : 1,
					"patching_rect" : [ 693.0, 351.0, 62.0, 20.0 ],
					"numoutlets" : 1,
					"id" : "obj-63",
					"fontname" : "Arial",
					"outlettype" : [ "float" ],
					"fontsize" : 12.0,
					"patcher" : 					{
						"fileversion" : 1,
						"appversion" : 						{
							"major" : 5,
							"minor" : 1,
							"revision" : 9
						}
,
						"rect" : [ 29.0, 69.0, 274.0, 212.0 ],
						"bglocked" : 0,
						"defrect" : [ 29.0, 69.0, 274.0, 212.0 ],
						"openrect" : [ 0.0, 0.0, 0.0, 0.0 ],
						"openinpresentation" : 0,
						"default_fontsize" : 12.0,
						"default_fontface" : 0,
						"default_fontname" : "Arial",
						"gridonopen" : 0,
						"gridsize" : [ 15.0, 15.0 ],
						"gridsnaponopen" : 0,
						"toolbarvisible" : 1,
						"boxanimatetime" : 200,
						"imprint" : 0,
						"enablehscroll" : 1,
						"enablevscroll" : 1,
						"devicewidth" : 0.0,
						"boxes" : [ 							{
								"box" : 								{
									"maxclass" : "outlet",
									"numinlets" : 1,
									"patching_rect" : [ 21.0, 168.0, 25.0, 25.0 ],
									"numoutlets" : 0,
									"id" : "obj-1",
									"comment" : ""
								}

							}
, 							{
								"box" : 								{
									"maxclass" : "inlet",
									"numinlets" : 0,
									"patching_rect" : [ 21.0, 27.0, 25.0, 25.0 ],
									"numoutlets" : 1,
									"id" : "obj-41",
									"outlettype" : [ "bang" ],
									"comment" : ""
								}

							}
, 							{
								"box" : 								{
									"maxclass" : "newobj",
									"text" : "!/ 1000.",
									"numinlets" : 2,
									"patching_rect" : [ 21.0, 142.0, 51.0, 20.0 ],
									"numoutlets" : 1,
									"id" : "obj-38",
									"fontname" : "Arial",
									"outlettype" : [ "float" ],
									"fontsize" : 12.0
								}

							}
, 							{
								"box" : 								{
									"maxclass" : "newobj",
									"text" : "expr ($i1+$i2+$i3+$i4+$i5+$i6+$i7+$i8)/8",
									"numinlets" : 8,
									"patching_rect" : [ 21.0, 116.0, 232.0, 20.0 ],
									"numoutlets" : 1,
									"id" : "obj-35",
									"fontname" : "Arial",
									"outlettype" : [ "" ],
									"fontsize" : 12.0
								}

							}
, 							{
								"box" : 								{
									"maxclass" : "newobj",
									"text" : "bucket 8",
									"numinlets" : 1,
									"patching_rect" : [ 21.0, 86.0, 113.5, 20.0 ],
									"numoutlets" : 8,
									"id" : "obj-33",
									"fontname" : "Arial",
									"outlettype" : [ "", "", "", "", "", "", "", "" ],
									"fontsize" : 12.0
								}

							}
, 							{
								"box" : 								{
									"maxclass" : "newobj",
									"text" : "timer",
									"numinlets" : 2,
									"patching_rect" : [ 21.0, 59.0, 37.0, 20.0 ],
									"numoutlets" : 2,
									"id" : "obj-30",
									"fontname" : "Arial",
									"outlettype" : [ "float", "" ],
									"fontsize" : 12.0
								}

							}
 ],
						"lines" : [ 							{
								"patchline" : 								{
									"source" : [ "obj-41", 0 ],
									"destination" : [ "obj-30", 0 ],
									"hidden" : 0,
									"midpoints" : [  ]
								}

							}
, 							{
								"patchline" : 								{
									"source" : [ "obj-41", 0 ],
									"destination" : [ "obj-30", 1 ],
									"hidden" : 0,
									"midpoints" : [  ]
								}

							}
, 							{
								"patchline" : 								{
									"source" : [ "obj-38", 0 ],
									"destination" : [ "obj-1", 0 ],
									"hidden" : 0,
									"midpoints" : [  ]
								}

							}
, 							{
								"patchline" : 								{
									"source" : [ "obj-35", 0 ],
									"destination" : [ "obj-38", 0 ],
									"hidden" : 0,
									"midpoints" : [  ]
								}

							}
, 							{
								"patchline" : 								{
									"source" : [ "obj-33", 0 ],
									"destination" : [ "obj-35", 0 ],
									"hidden" : 0,
									"midpoints" : [  ]
								}

							}
, 							{
								"patchline" : 								{
									"source" : [ "obj-33", 1 ],
									"destination" : [ "obj-35", 1 ],
									"hidden" : 0,
									"midpoints" : [  ]
								}

							}
, 							{
								"patchline" : 								{
									"source" : [ "obj-33", 2 ],
									"destination" : [ "obj-35", 2 ],
									"hidden" : 0,
									"midpoints" : [  ]
								}

							}
, 							{
								"patchline" : 								{
									"source" : [ "obj-33", 3 ],
									"destination" : [ "obj-35", 3 ],
									"hidden" : 0,
									"midpoints" : [  ]
								}

							}
, 							{
								"patchline" : 								{
									"source" : [ "obj-33", 4 ],
									"destination" : [ "obj-35", 4 ],
									"hidden" : 0,
									"midpoints" : [  ]
								}

							}
, 							{
								"patchline" : 								{
									"source" : [ "obj-33", 5 ],
									"destination" : [ "obj-35", 5 ],
									"hidden" : 0,
									"midpoints" : [  ]
								}

							}
, 							{
								"patchline" : 								{
									"source" : [ "obj-33", 6 ],
									"destination" : [ "obj-35", 6 ],
									"hidden" : 0,
									"midpoints" : [  ]
								}

							}
, 							{
								"patchline" : 								{
									"source" : [ "obj-33", 7 ],
									"destination" : [ "obj-35", 7 ],
									"hidden" : 0,
									"midpoints" : [  ]
								}

							}
, 							{
								"patchline" : 								{
									"source" : [ "obj-30", 0 ],
									"destination" : [ "obj-33", 0 ],
									"hidden" : 0,
									"midpoints" : [  ]
								}

							}
 ]
					}
,
					"saved_object_attributes" : 					{
						"default_fontname" : "Arial",
						"fontname" : "Arial",
						"default_fontsize" : 12.0,
						"globalpatchername" : "",
						"fontface" : 0,
						"fontsize" : 12.0,
						"default_fontface" : 0
					}

				}

			}
, 			{
				"box" : 				{
					"maxclass" : "newobj",
					"text" : "noise~",
					"numinlets" : 1,
					"patching_rect" : [ 693.0, 386.0, 46.0, 20.0 ],
					"numoutlets" : 1,
					"id" : "obj-64",
					"fontname" : "Arial",
					"outlettype" : [ "signal" ],
					"fontsize" : 12.0
				}

			}
, 			{
				"box" : 				{
					"maxclass" : "newobj",
					"text" : "lores~ 100",
					"numinlets" : 3,
					"patching_rect" : [ 496.0, 472.0, 67.0, 20.0 ],
					"numoutlets" : 1,
					"id" : "obj-54",
					"fontname" : "Arial",
					"outlettype" : [ "signal" ],
					"fontsize" : 12.0
				}

			}
, 			{
				"box" : 				{
					"maxclass" : "newobj",
					"text" : "lores~ 100",
					"numinlets" : 3,
					"patching_rect" : [ 496.0, 446.0, 67.0, 20.0 ],
					"numoutlets" : 1,
					"id" : "obj-53",
					"fontname" : "Arial",
					"outlettype" : [ "signal" ],
					"fontsize" : 12.0
				}

			}
, 			{
				"box" : 				{
					"maxclass" : "newobj",
					"text" : "!-~ 1.",
					"numinlets" : 2,
					"patching_rect" : [ 574.0, 465.0, 38.0, 20.0 ],
					"numoutlets" : 1,
					"id" : "obj-52",
					"fontname" : "Arial",
					"outlettype" : [ "signal" ],
					"fontsize" : 12.0
				}

			}
, 			{
				"box" : 				{
					"maxclass" : "newobj",
					"text" : "*~ 0.5",
					"numinlets" : 2,
					"patching_rect" : [ 485.0, 538.0, 42.0, 20.0 ],
					"numoutlets" : 1,
					"id" : "obj-49",
					"fontname" : "Arial",
					"outlettype" : [ "signal" ],
					"fontsize" : 12.0
				}

			}
, 			{
				"box" : 				{
					"maxclass" : "newobj",
					"text" : "*~",
					"numinlets" : 2,
					"patching_rect" : [ 496.0, 500.0, 32.5, 20.0 ],
					"numoutlets" : 1,
					"id" : "obj-46",
					"fontname" : "Arial",
					"outlettype" : [ "signal" ],
					"fontsize" : 12.0
				}

			}
, 			{
				"box" : 				{
					"maxclass" : "newobj",
					"text" : "lores~ 100",
					"numinlets" : 3,
					"patching_rect" : [ 496.0, 421.0, 67.0, 20.0 ],
					"numoutlets" : 1,
					"id" : "obj-45",
					"fontname" : "Arial",
					"outlettype" : [ "signal" ],
					"fontsize" : 12.0
				}

			}
, 			{
				"box" : 				{
					"maxclass" : "newobj",
					"text" : "*~",
					"numinlets" : 2,
					"patching_rect" : [ 574.0, 404.0, 32.5, 20.0 ],
					"numoutlets" : 1,
					"id" : "obj-44",
					"fontname" : "Arial",
					"outlettype" : [ "signal" ],
					"fontsize" : 12.0
				}

			}
, 			{
				"box" : 				{
					"maxclass" : "newobj",
					"text" : "phasor~",
					"numinlets" : 2,
					"patching_rect" : [ 574.0, 377.0, 54.0, 20.0 ],
					"numoutlets" : 1,
					"id" : "obj-43",
					"fontname" : "Arial",
					"outlettype" : [ "signal" ],
					"fontsize" : 12.0
				}

			}
, 			{
				"box" : 				{
					"maxclass" : "newobj",
					"text" : "p getFreq",
					"numinlets" : 1,
					"patching_rect" : [ 496.0, 358.0, 62.0, 20.0 ],
					"numoutlets" : 1,
					"id" : "obj-42",
					"fontname" : "Arial",
					"outlettype" : [ "float" ],
					"fontsize" : 12.0,
					"patcher" : 					{
						"fileversion" : 1,
						"appversion" : 						{
							"major" : 5,
							"minor" : 1,
							"revision" : 9
						}
,
						"rect" : [ 29.0, 69.0, 274.0, 212.0 ],
						"bglocked" : 0,
						"defrect" : [ 29.0, 69.0, 274.0, 212.0 ],
						"openrect" : [ 0.0, 0.0, 0.0, 0.0 ],
						"openinpresentation" : 0,
						"default_fontsize" : 12.0,
						"default_fontface" : 0,
						"default_fontname" : "Arial",
						"gridonopen" : 0,
						"gridsize" : [ 15.0, 15.0 ],
						"gridsnaponopen" : 0,
						"toolbarvisible" : 1,
						"boxanimatetime" : 200,
						"imprint" : 0,
						"enablehscroll" : 1,
						"enablevscroll" : 1,
						"devicewidth" : 0.0,
						"boxes" : [ 							{
								"box" : 								{
									"maxclass" : "outlet",
									"numinlets" : 1,
									"patching_rect" : [ 21.0, 168.0, 25.0, 25.0 ],
									"numoutlets" : 0,
									"id" : "obj-1",
									"comment" : ""
								}

							}
, 							{
								"box" : 								{
									"maxclass" : "inlet",
									"numinlets" : 0,
									"patching_rect" : [ 21.0, 27.0, 25.0, 25.0 ],
									"numoutlets" : 1,
									"id" : "obj-41",
									"outlettype" : [ "bang" ],
									"comment" : ""
								}

							}
, 							{
								"box" : 								{
									"maxclass" : "newobj",
									"text" : "!/ 1000.",
									"numinlets" : 2,
									"patching_rect" : [ 21.0, 142.0, 51.0, 20.0 ],
									"numoutlets" : 1,
									"id" : "obj-38",
									"fontname" : "Arial",
									"outlettype" : [ "float" ],
									"fontsize" : 12.0
								}

							}
, 							{
								"box" : 								{
									"maxclass" : "newobj",
									"text" : "expr ($i1+$i2+$i3+$i4+$i5+$i6+$i7+$i8)/8",
									"numinlets" : 8,
									"patching_rect" : [ 21.0, 116.0, 232.0, 20.0 ],
									"numoutlets" : 1,
									"id" : "obj-35",
									"fontname" : "Arial",
									"outlettype" : [ "" ],
									"fontsize" : 12.0
								}

							}
, 							{
								"box" : 								{
									"maxclass" : "newobj",
									"text" : "bucket 8",
									"numinlets" : 1,
									"patching_rect" : [ 21.0, 86.0, 113.5, 20.0 ],
									"numoutlets" : 8,
									"id" : "obj-33",
									"fontname" : "Arial",
									"outlettype" : [ "", "", "", "", "", "", "", "" ],
									"fontsize" : 12.0
								}

							}
, 							{
								"box" : 								{
									"maxclass" : "newobj",
									"text" : "timer",
									"numinlets" : 2,
									"patching_rect" : [ 21.0, 59.0, 37.0, 20.0 ],
									"numoutlets" : 2,
									"id" : "obj-30",
									"fontname" : "Arial",
									"outlettype" : [ "float", "" ],
									"fontsize" : 12.0
								}

							}
 ],
						"lines" : [ 							{
								"patchline" : 								{
									"source" : [ "obj-41", 0 ],
									"destination" : [ "obj-30", 0 ],
									"hidden" : 0,
									"midpoints" : [  ]
								}

							}
, 							{
								"patchline" : 								{
									"source" : [ "obj-41", 0 ],
									"destination" : [ "obj-30", 1 ],
									"hidden" : 0,
									"midpoints" : [  ]
								}

							}
, 							{
								"patchline" : 								{
									"source" : [ "obj-38", 0 ],
									"destination" : [ "obj-1", 0 ],
									"hidden" : 0,
									"midpoints" : [  ]
								}

							}
, 							{
								"patchline" : 								{
									"source" : [ "obj-35", 0 ],
									"destination" : [ "obj-38", 0 ],
									"hidden" : 0,
									"midpoints" : [  ]
								}

							}
, 							{
								"patchline" : 								{
									"source" : [ "obj-33", 0 ],
									"destination" : [ "obj-35", 0 ],
									"hidden" : 0,
									"midpoints" : [  ]
								}

							}
, 							{
								"patchline" : 								{
									"source" : [ "obj-33", 1 ],
									"destination" : [ "obj-35", 1 ],
									"hidden" : 0,
									"midpoints" : [  ]
								}

							}
, 							{
								"patchline" : 								{
									"source" : [ "obj-33", 2 ],
									"destination" : [ "obj-35", 2 ],
									"hidden" : 0,
									"midpoints" : [  ]
								}

							}
, 							{
								"patchline" : 								{
									"source" : [ "obj-33", 3 ],
									"destination" : [ "obj-35", 3 ],
									"hidden" : 0,
									"midpoints" : [  ]
								}

							}
, 							{
								"patchline" : 								{
									"source" : [ "obj-33", 4 ],
									"destination" : [ "obj-35", 4 ],
									"hidden" : 0,
									"midpoints" : [  ]
								}

							}
, 							{
								"patchline" : 								{
									"source" : [ "obj-33", 5 ],
									"destination" : [ "obj-35", 5 ],
									"hidden" : 0,
									"midpoints" : [  ]
								}

							}
, 							{
								"patchline" : 								{
									"source" : [ "obj-33", 6 ],
									"destination" : [ "obj-35", 6 ],
									"hidden" : 0,
									"midpoints" : [  ]
								}

							}
, 							{
								"patchline" : 								{
									"source" : [ "obj-33", 7 ],
									"destination" : [ "obj-35", 7 ],
									"hidden" : 0,
									"midpoints" : [  ]
								}

							}
, 							{
								"patchline" : 								{
									"source" : [ "obj-30", 0 ],
									"destination" : [ "obj-33", 0 ],
									"hidden" : 0,
									"midpoints" : [  ]
								}

							}
 ]
					}
,
					"saved_object_attributes" : 					{
						"default_fontname" : "Arial",
						"fontname" : "Arial",
						"default_fontsize" : 12.0,
						"globalpatchername" : "",
						"fontface" : 0,
						"fontsize" : 12.0,
						"default_fontface" : 0
					}

				}

			}
, 			{
				"box" : 				{
					"maxclass" : "newobj",
					"text" : "p kick~",
					"numinlets" : 1,
					"patching_rect" : [ 540.0, 286.0, 42.0, 18.0 ],
					"numoutlets" : 1,
					"id" : "obj-28",
					"fontname" : "Trebuchet MS",
					"outlettype" : [ "signal" ],
					"fontsize" : 10.0,
					"patcher" : 					{
						"fileversion" : 1,
						"appversion" : 						{
							"major" : 5,
							"minor" : 1,
							"revision" : 9
						}
,
						"rect" : [ 302.0, 189.0, 640.0, 480.0 ],
						"bglocked" : 0,
						"defrect" : [ 302.0, 189.0, 640.0, 480.0 ],
						"openrect" : [ 0.0, 0.0, 0.0, 0.0 ],
						"openinpresentation" : 0,
						"default_fontsize" : 10.0,
						"default_fontface" : 0,
						"default_fontname" : "Trebuchet MS",
						"gridonopen" : 0,
						"gridsize" : [ 7.5, 7.5 ],
						"gridsnaponopen" : 0,
						"toolbarvisible" : 1,
						"boxanimatetime" : 200,
						"imprint" : 0,
						"enablehscroll" : 1,
						"enablevscroll" : 1,
						"devicewidth" : 0.0,
						"boxes" : [ 							{
								"box" : 								{
									"maxclass" : "message",
									"text" : "100",
									"numinlets" : 2,
									"patching_rect" : [ 398.0, 97.5, 32.5, 16.0 ],
									"numoutlets" : 1,
									"id" : "obj-8",
									"fontname" : "Trebuchet MS",
									"outlettype" : [ "" ],
									"fontsize" : 10.0
								}

							}
, 							{
								"box" : 								{
									"maxclass" : "message",
									"text" : "1000",
									"numinlets" : 2,
									"patching_rect" : [ 90.0, 195.0, 32.5, 16.0 ],
									"numoutlets" : 1,
									"id" : "obj-6",
									"fontname" : "Trebuchet MS",
									"outlettype" : [ "" ],
									"fontsize" : 10.0
								}

							}
, 							{
								"box" : 								{
									"maxclass" : "message",
									"text" : "1600",
									"numinlets" : 2,
									"patching_rect" : [ 330.0, 97.5, 32.5, 16.0 ],
									"numoutlets" : 1,
									"id" : "obj-4",
									"fontname" : "Trebuchet MS",
									"outlettype" : [ "" ],
									"fontsize" : 10.0
								}

							}
, 							{
								"box" : 								{
									"maxclass" : "outlet",
									"numinlets" : 1,
									"patching_rect" : [ 262.5, 300.0, 25.0, 25.0 ],
									"numoutlets" : 0,
									"id" : "obj-22",
									"comment" : ""
								}

							}
, 							{
								"box" : 								{
									"maxclass" : "inlet",
									"numinlets" : 0,
									"patching_rect" : [ 195.0, 67.5, 25.0, 25.0 ],
									"numoutlets" : 1,
									"id" : "obj-21",
									"outlettype" : [ "float" ],
									"comment" : ""
								}

							}
, 							{
								"box" : 								{
									"maxclass" : "newobj",
									"text" : "pack f f f",
									"numinlets" : 3,
									"patching_rect" : [ 330.0, 120.0, 51.0, 18.0 ],
									"numoutlets" : 1,
									"id" : "obj-20",
									"fontname" : "Trebuchet MS",
									"outlettype" : [ "" ],
									"fontsize" : 10.0
								}

							}
, 							{
								"box" : 								{
									"maxclass" : "newobj",
									"text" : "t b b b",
									"numinlets" : 1,
									"patching_rect" : [ 330.0, 75.0, 46.0, 18.0 ],
									"numoutlets" : 3,
									"id" : "obj-17",
									"fontname" : "Trebuchet MS",
									"outlettype" : [ "bang", "bang", "bang" ],
									"fontsize" : 10.0
								}

							}
, 							{
								"box" : 								{
									"maxclass" : "newobj",
									"text" : "randgen 10",
									"numinlets" : 3,
									"patching_rect" : [ 502.5, 97.5, 60.0, 18.0 ],
									"numoutlets" : 1,
									"id" : "obj-16",
									"fontname" : "Trebuchet MS",
									"outlettype" : [ "float" ],
									"fontsize" : 10.0
								}

							}
, 							{
								"box" : 								{
									"maxclass" : "newobj",
									"text" : "prepend set",
									"numinlets" : 1,
									"patching_rect" : [ 90.0, 217.5, 64.0, 18.0 ],
									"numoutlets" : 1,
									"id" : "obj-11",
									"fontname" : "Trebuchet MS",
									"outlettype" : [ "" ],
									"fontsize" : 10.0
								}

							}
, 							{
								"box" : 								{
									"maxclass" : "newobj",
									"text" : "append 50",
									"numinlets" : 1,
									"patching_rect" : [ 195.0, 225.0, 57.0, 18.0 ],
									"numoutlets" : 1,
									"id" : "obj-10",
									"fontname" : "Trebuchet MS",
									"outlettype" : [ "" ],
									"fontsize" : 10.0
								}

							}
, 							{
								"box" : 								{
									"maxclass" : "newobj",
									"text" : "*~ 0.",
									"numinlets" : 2,
									"patching_rect" : [ 262.5, 277.5, 32.5, 18.0 ],
									"numoutlets" : 1,
									"id" : "obj-2",
									"fontname" : "Trebuchet MS",
									"outlettype" : [ "signal" ],
									"fontsize" : 10.0
								}

							}
, 							{
								"box" : 								{
									"maxclass" : "newobj",
									"text" : "randgen 0.4 0.5",
									"numinlets" : 3,
									"patching_rect" : [ 195.0, 142.5, 81.0, 18.0 ],
									"numoutlets" : 1,
									"id" : "obj-273",
									"fontname" : "Trebuchet MS",
									"outlettype" : [ "float" ],
									"fontsize" : 10.0
								}

							}
, 							{
								"box" : 								{
									"maxclass" : "button",
									"numinlets" : 1,
									"patching_rect" : [ 195.0, 97.0, 21.0, 21.0 ],
									"numoutlets" : 1,
									"id" : "obj-255",
									"outlettype" : [ "bang" ]
								}

							}
, 							{
								"box" : 								{
									"maxclass" : "message",
									"text" : "0, $1 10 0",
									"numinlets" : 2,
									"patching_rect" : [ 195.0, 202.5, 55.0, 16.0 ],
									"numoutlets" : 1,
									"id" : "obj-251",
									"fontname" : "Trebuchet MS",
									"outlettype" : [ "" ],
									"fontsize" : 10.0
								}

							}
, 							{
								"box" : 								{
									"maxclass" : "newobj",
									"text" : "line~",
									"numinlets" : 2,
									"patching_rect" : [ 195.0, 247.5, 32.5, 18.0 ],
									"numoutlets" : 2,
									"id" : "obj-252",
									"fontname" : "Trebuchet MS",
									"outlettype" : [ "signal", "bang" ],
									"fontsize" : 10.0
								}

							}
, 							{
								"box" : 								{
									"maxclass" : "newobj",
									"text" : "t b b",
									"numinlets" : 1,
									"patching_rect" : [ 195.0, 120.0, 33.5, 18.0 ],
									"numoutlets" : 2,
									"id" : "obj-249",
									"fontname" : "Trebuchet MS",
									"outlettype" : [ "bang", "bang" ],
									"fontsize" : 10.0
								}

							}
, 							{
								"box" : 								{
									"maxclass" : "message",
									"text" : "$1, $2 $3",
									"numinlets" : 2,
									"patching_rect" : [ 277.5, 142.5, 52.0, 16.0 ],
									"numoutlets" : 1,
									"id" : "obj-248",
									"fontname" : "Trebuchet MS",
									"outlettype" : [ "" ],
									"fontsize" : 10.0
								}

							}
, 							{
								"box" : 								{
									"maxclass" : "newobj",
									"text" : "line~",
									"numinlets" : 2,
									"patching_rect" : [ 277.5, 165.0, 32.5, 18.0 ],
									"numoutlets" : 2,
									"id" : "obj-246",
									"fontname" : "Trebuchet MS",
									"outlettype" : [ "signal", "bang" ],
									"fontsize" : 10.0
								}

							}
, 							{
								"box" : 								{
									"maxclass" : "newobj",
									"text" : "cycle~",
									"numinlets" : 2,
									"patching_rect" : [ 277.5, 195.0, 39.0, 18.0 ],
									"numoutlets" : 1,
									"id" : "obj-245",
									"fontname" : "Trebuchet MS",
									"outlettype" : [ "signal" ],
									"fontsize" : 10.0
								}

							}
 ],
						"lines" : [ 							{
								"patchline" : 								{
									"source" : [ "obj-8", 0 ],
									"destination" : [ "obj-20", 1 ],
									"hidden" : 0,
									"midpoints" : [  ]
								}

							}
, 							{
								"patchline" : 								{
									"source" : [ "obj-6", 0 ],
									"destination" : [ "obj-11", 0 ],
									"hidden" : 0,
									"midpoints" : [  ]
								}

							}
, 							{
								"patchline" : 								{
									"source" : [ "obj-4", 0 ],
									"destination" : [ "obj-20", 0 ],
									"hidden" : 0,
									"midpoints" : [  ]
								}

							}
, 							{
								"patchline" : 								{
									"source" : [ "obj-273", 0 ],
									"destination" : [ "obj-251", 0 ],
									"hidden" : 0,
									"midpoints" : [  ]
								}

							}
, 							{
								"patchline" : 								{
									"source" : [ "obj-255", 0 ],
									"destination" : [ "obj-6", 0 ],
									"hidden" : 0,
									"midpoints" : [  ]
								}

							}
, 							{
								"patchline" : 								{
									"source" : [ "obj-255", 0 ],
									"destination" : [ "obj-249", 0 ],
									"hidden" : 0,
									"midpoints" : [  ]
								}

							}
, 							{
								"patchline" : 								{
									"source" : [ "obj-252", 0 ],
									"destination" : [ "obj-2", 0 ],
									"hidden" : 0,
									"midpoints" : [  ]
								}

							}
, 							{
								"patchline" : 								{
									"source" : [ "obj-251", 0 ],
									"destination" : [ "obj-10", 0 ],
									"hidden" : 0,
									"midpoints" : [  ]
								}

							}
, 							{
								"patchline" : 								{
									"source" : [ "obj-249", 0 ],
									"destination" : [ "obj-273", 0 ],
									"hidden" : 0,
									"midpoints" : [  ]
								}

							}
, 							{
								"patchline" : 								{
									"source" : [ "obj-249", 1 ],
									"destination" : [ "obj-17", 0 ],
									"hidden" : 0,
									"midpoints" : [  ]
								}

							}
, 							{
								"patchline" : 								{
									"source" : [ "obj-248", 0 ],
									"destination" : [ "obj-246", 0 ],
									"hidden" : 0,
									"midpoints" : [  ]
								}

							}
, 							{
								"patchline" : 								{
									"source" : [ "obj-246", 0 ],
									"destination" : [ "obj-245", 0 ],
									"hidden" : 0,
									"midpoints" : [  ]
								}

							}
, 							{
								"patchline" : 								{
									"source" : [ "obj-245", 0 ],
									"destination" : [ "obj-2", 1 ],
									"hidden" : 0,
									"midpoints" : [  ]
								}

							}
, 							{
								"patchline" : 								{
									"source" : [ "obj-21", 0 ],
									"destination" : [ "obj-255", 0 ],
									"hidden" : 0,
									"midpoints" : [  ]
								}

							}
, 							{
								"patchline" : 								{
									"source" : [ "obj-20", 0 ],
									"destination" : [ "obj-248", 0 ],
									"hidden" : 0,
									"midpoints" : [  ]
								}

							}
, 							{
								"patchline" : 								{
									"source" : [ "obj-2", 0 ],
									"destination" : [ "obj-22", 0 ],
									"hidden" : 0,
									"midpoints" : [  ]
								}

							}
, 							{
								"patchline" : 								{
									"source" : [ "obj-17", 1 ],
									"destination" : [ "obj-8", 0 ],
									"hidden" : 0,
									"midpoints" : [  ]
								}

							}
, 							{
								"patchline" : 								{
									"source" : [ "obj-17", 0 ],
									"destination" : [ "obj-4", 0 ],
									"hidden" : 0,
									"midpoints" : [  ]
								}

							}
, 							{
								"patchline" : 								{
									"source" : [ "obj-17", 2 ],
									"destination" : [ "obj-16", 0 ],
									"hidden" : 0,
									"midpoints" : [  ]
								}

							}
, 							{
								"patchline" : 								{
									"source" : [ "obj-16", 0 ],
									"destination" : [ "obj-20", 2 ],
									"hidden" : 0,
									"midpoints" : [  ]
								}

							}
, 							{
								"patchline" : 								{
									"source" : [ "obj-11", 0 ],
									"destination" : [ "obj-10", 0 ],
									"hidden" : 0,
									"midpoints" : [  ]
								}

							}
, 							{
								"patchline" : 								{
									"source" : [ "obj-10", 0 ],
									"destination" : [ "obj-252", 0 ],
									"hidden" : 0,
									"midpoints" : [  ]
								}

							}
 ]
					}
,
					"saved_object_attributes" : 					{
						"default_fontname" : "Trebuchet MS",
						"fontname" : "Trebuchet MS",
						"default_fontsize" : 10.0,
						"globalpatchername" : "",
						"fontface" : 0,
						"fontsize" : 10.0,
						"default_fontface" : 0
					}

				}

			}
, 			{
				"box" : 				{
					"maxclass" : "newobj",
					"text" : "change",
					"numinlets" : 1,
					"patching_rect" : [ 540.0, 228.0, 50.0, 20.0 ],
					"numoutlets" : 3,
					"id" : "obj-27",
					"fontname" : "Arial",
					"outlettype" : [ "", "int", "int" ],
					"fontsize" : 12.0
				}

			}
, 			{
				"box" : 				{
					"maxclass" : "newobj",
					"text" : "udpsend 127.0.0.1 13001",
					"numinlets" : 1,
					"patching_rect" : [ 636.0, 126.0, 147.0, 20.0 ],
					"numoutlets" : 0,
					"id" : "obj-26",
					"fontname" : "Arial",
					"fontsize" : 12.0
				}

			}
, 			{
				"box" : 				{
					"maxclass" : "newobj",
					"text" : "reson~",
					"numinlets" : 4,
					"patching_rect" : [ 721.0, 251.0, 59.5, 20.0 ],
					"numoutlets" : 1,
					"id" : "obj-25",
					"fontname" : "Arial",
					"outlettype" : [ "signal" ],
					"fontsize" : 12.0
				}

			}
, 			{
				"box" : 				{
					"maxclass" : "newobj",
					"text" : "noise~",
					"numinlets" : 1,
					"patching_rect" : [ 496.0, 393.0, 46.0, 20.0 ],
					"numoutlets" : 1,
					"id" : "obj-24",
					"fontname" : "Arial",
					"outlettype" : [ "signal" ],
					"fontsize" : 12.0
				}

			}
, 			{
				"box" : 				{
					"maxclass" : "newobj",
					"text" : "change",
					"numinlets" : 1,
					"patching_rect" : [ 450.0, 228.0, 50.0, 20.0 ],
					"numoutlets" : 3,
					"id" : "obj-23",
					"fontname" : "Arial",
					"outlettype" : [ "", "int", "int" ],
					"fontsize" : 12.0
				}

			}
, 			{
				"box" : 				{
					"maxclass" : "newobj",
					"text" : "sel 1",
					"numinlets" : 2,
					"patching_rect" : [ 540.0, 260.0, 36.0, 20.0 ],
					"numoutlets" : 2,
					"id" : "obj-18",
					"fontname" : "Arial",
					"outlettype" : [ "bang", "" ],
					"fontsize" : 12.0
				}

			}
, 			{
				"box" : 				{
					"maxclass" : "toggle",
					"numinlets" : 1,
					"patching_rect" : [ 540.0, 200.0, 20.0, 20.0 ],
					"numoutlets" : 1,
					"id" : "obj-19",
					"outlettype" : [ "int" ]
				}

			}
, 			{
				"box" : 				{
					"maxclass" : "slider",
					"numinlets" : 1,
					"patching_rect" : [ 586.0, 200.0, 20.0, 140.0 ],
					"numoutlets" : 1,
					"id" : "obj-20",
					"outlettype" : [ "" ],
					"size" : 1024.0
				}

			}
, 			{
				"box" : 				{
					"maxclass" : "newobj",
					"text" : "sel 1",
					"numinlets" : 2,
					"patching_rect" : [ 450.0, 254.0, 36.0, 20.0 ],
					"numoutlets" : 2,
					"id" : "obj-14",
					"fontname" : "Arial",
					"outlettype" : [ "bang", "" ],
					"fontsize" : 12.0
				}

			}
, 			{
				"box" : 				{
					"maxclass" : "toggle",
					"numinlets" : 1,
					"patching_rect" : [ 450.0, 200.0, 20.0, 20.0 ],
					"numoutlets" : 1,
					"id" : "obj-13",
					"outlettype" : [ "int" ]
				}

			}
, 			{
				"box" : 				{
					"maxclass" : "newobj",
					"text" : "unpack i i i i i i i",
					"numinlets" : 1,
					"patching_rect" : [ 450.0, 172.0, 100.0, 20.0 ],
					"numoutlets" : 7,
					"id" : "obj-11",
					"fontname" : "Arial",
					"outlettype" : [ "int", "int", "int", "int", "int", "int", "int" ],
					"fontsize" : 12.0
				}

			}
, 			{
				"box" : 				{
					"maxclass" : "slider",
					"numinlets" : 1,
					"patching_rect" : [ 496.0, 200.0, 20.0, 140.0 ],
					"numoutlets" : 1,
					"id" : "obj-10",
					"outlettype" : [ "" ],
					"size" : 1024.0
				}

			}
, 			{
				"box" : 				{
					"maxclass" : "newobj",
					"text" : "route 1 2 3 4",
					"numinlets" : 1,
					"patching_rect" : [ 496.0, 140.0, 78.0, 20.0 ],
					"numoutlets" : 5,
					"id" : "obj-8",
					"fontname" : "Arial",
					"outlettype" : [ "", "", "", "", "" ],
					"fontsize" : 12.0
				}

			}
, 			{
				"box" : 				{
					"maxclass" : "newobj",
					"text" : "route /straps",
					"numinlets" : 1,
					"patching_rect" : [ 450.0, 102.0, 77.0, 20.0 ],
					"numoutlets" : 2,
					"id" : "obj-3",
					"fontname" : "Arial",
					"outlettype" : [ "", "" ],
					"fontsize" : 12.0
				}

			}
, 			{
				"box" : 				{
					"maxclass" : "newobj",
					"text" : "udpreceive 13000",
					"numinlets" : 1,
					"patching_rect" : [ 450.0, 60.0, 106.0, 20.0 ],
					"numoutlets" : 1,
					"id" : "obj-1",
					"fontname" : "Arial",
					"outlettype" : [ "" ],
					"fontsize" : 12.0
				}

			}
 ],
		"lines" : [ 			{
				"patchline" : 				{
					"source" : [ "obj-42", 0 ],
					"destination" : [ "obj-28", 0 ],
					"hidden" : 0,
					"midpoints" : [  ]
				}

			}
, 			{
				"patchline" : 				{
					"source" : [ "obj-4", 0 ],
					"destination" : [ "obj-303", 0 ],
					"hidden" : 0,
					"midpoints" : [  ]
				}

			}
, 			{
				"patchline" : 				{
					"source" : [ "obj-303", 0 ],
					"destination" : [ "obj-15", 0 ],
					"hidden" : 0,
					"midpoints" : [  ]
				}

			}
, 			{
				"patchline" : 				{
					"source" : [ "obj-8", 0 ],
					"destination" : [ "obj-11", 0 ],
					"hidden" : 0,
					"midpoints" : [  ]
				}

			}
, 			{
				"patchline" : 				{
					"source" : [ "obj-68", 0 ],
					"destination" : [ "obj-55", 2 ],
					"hidden" : 0,
					"midpoints" : [  ]
				}

			}
, 			{
				"patchline" : 				{
					"source" : [ "obj-66", 0 ],
					"destination" : [ "obj-52", 0 ],
					"hidden" : 0,
					"midpoints" : [  ]
				}

			}
, 			{
				"patchline" : 				{
					"source" : [ "obj-65", 0 ],
					"destination" : [ "obj-57", 0 ],
					"hidden" : 0,
					"midpoints" : [  ]
				}

			}
, 			{
				"patchline" : 				{
					"source" : [ "obj-64", 0 ],
					"destination" : [ "obj-60", 0 ],
					"hidden" : 0,
					"midpoints" : [  ]
				}

			}
, 			{
				"patchline" : 				{
					"source" : [ "obj-63", 0 ],
					"destination" : [ "obj-62", 0 ],
					"hidden" : 0,
					"midpoints" : [  ]
				}

			}
, 			{
				"patchline" : 				{
					"source" : [ "obj-62", 0 ],
					"destination" : [ "obj-61", 0 ],
					"hidden" : 0,
					"midpoints" : [  ]
				}

			}
, 			{
				"patchline" : 				{
					"source" : [ "obj-62", 0 ],
					"destination" : [ "obj-61", 1 ],
					"hidden" : 0,
					"midpoints" : [  ]
				}

			}
, 			{
				"patchline" : 				{
					"source" : [ "obj-61", 0 ],
					"destination" : [ "obj-65", 0 ],
					"hidden" : 0,
					"midpoints" : [  ]
				}

			}
, 			{
				"patchline" : 				{
					"source" : [ "obj-61", 0 ],
					"destination" : [ "obj-65", 1 ],
					"hidden" : 0,
					"midpoints" : [  ]
				}

			}
, 			{
				"patchline" : 				{
					"source" : [ "obj-60", 0 ],
					"destination" : [ "obj-56", 0 ],
					"hidden" : 0,
					"midpoints" : [  ]
				}

			}
, 			{
				"patchline" : 				{
					"source" : [ "obj-59", 0 ],
					"destination" : [ "obj-49", 0 ],
					"hidden" : 0,
					"midpoints" : [  ]
				}

			}
, 			{
				"patchline" : 				{
					"source" : [ "obj-57", 0 ],
					"destination" : [ "obj-59", 1 ],
					"hidden" : 0,
					"midpoints" : [  ]
				}

			}
, 			{
				"patchline" : 				{
					"source" : [ "obj-56", 0 ],
					"destination" : [ "obj-55", 0 ],
					"hidden" : 0,
					"midpoints" : [  ]
				}

			}
, 			{
				"patchline" : 				{
					"source" : [ "obj-55", 0 ],
					"destination" : [ "obj-59", 0 ],
					"hidden" : 0,
					"midpoints" : [  ]
				}

			}
, 			{
				"patchline" : 				{
					"source" : [ "obj-54", 0 ],
					"destination" : [ "obj-46", 0 ],
					"hidden" : 0,
					"midpoints" : [  ]
				}

			}
, 			{
				"patchline" : 				{
					"source" : [ "obj-53", 0 ],
					"destination" : [ "obj-54", 0 ],
					"hidden" : 0,
					"midpoints" : [  ]
				}

			}
, 			{
				"patchline" : 				{
					"source" : [ "obj-52", 0 ],
					"destination" : [ "obj-46", 1 ],
					"hidden" : 0,
					"midpoints" : [  ]
				}

			}
, 			{
				"patchline" : 				{
					"source" : [ "obj-45", 0 ],
					"destination" : [ "obj-53", 0 ],
					"hidden" : 0,
					"midpoints" : [  ]
				}

			}
, 			{
				"patchline" : 				{
					"source" : [ "obj-44", 0 ],
					"destination" : [ "obj-66", 0 ],
					"hidden" : 0,
					"midpoints" : [  ]
				}

			}
, 			{
				"patchline" : 				{
					"source" : [ "obj-44", 0 ],
					"destination" : [ "obj-66", 1 ],
					"hidden" : 0,
					"midpoints" : [  ]
				}

			}
, 			{
				"patchline" : 				{
					"source" : [ "obj-43", 0 ],
					"destination" : [ "obj-44", 0 ],
					"hidden" : 0,
					"midpoints" : [  ]
				}

			}
, 			{
				"patchline" : 				{
					"source" : [ "obj-43", 0 ],
					"destination" : [ "obj-44", 1 ],
					"hidden" : 0,
					"midpoints" : [  ]
				}

			}
, 			{
				"patchline" : 				{
					"source" : [ "obj-42", 0 ],
					"destination" : [ "obj-43", 0 ],
					"hidden" : 0,
					"midpoints" : [  ]
				}

			}
, 			{
				"patchline" : 				{
					"source" : [ "obj-3", 0 ],
					"destination" : [ "obj-11", 0 ],
					"hidden" : 0,
					"midpoints" : [  ]
				}

			}
, 			{
				"patchline" : 				{
					"source" : [ "obj-27", 0 ],
					"destination" : [ "obj-18", 0 ],
					"hidden" : 0,
					"midpoints" : [  ]
				}

			}
, 			{
				"patchline" : 				{
					"source" : [ "obj-24", 0 ],
					"destination" : [ "obj-45", 0 ],
					"hidden" : 0,
					"midpoints" : [  ]
				}

			}
, 			{
				"patchline" : 				{
					"source" : [ "obj-23", 0 ],
					"destination" : [ "obj-14", 0 ],
					"hidden" : 0,
					"midpoints" : [  ]
				}

			}
, 			{
				"patchline" : 				{
					"source" : [ "obj-19", 0 ],
					"destination" : [ "obj-27", 0 ],
					"hidden" : 0,
					"midpoints" : [  ]
				}

			}
, 			{
				"patchline" : 				{
					"source" : [ "obj-18", 0 ],
					"destination" : [ "obj-63", 0 ],
					"hidden" : 0,
					"midpoints" : [  ]
				}

			}
, 			{
				"patchline" : 				{
					"source" : [ "obj-18", 0 ],
					"destination" : [ "obj-28", 0 ],
					"hidden" : 0,
					"midpoints" : [  ]
				}

			}
, 			{
				"patchline" : 				{
					"source" : [ "obj-15", 0 ],
					"destination" : [ "obj-16", 0 ],
					"hidden" : 0,
					"midpoints" : [  ]
				}

			}
, 			{
				"patchline" : 				{
					"source" : [ "obj-15", 0 ],
					"destination" : [ "obj-16", 1 ],
					"hidden" : 0,
					"midpoints" : [  ]
				}

			}
, 			{
				"patchline" : 				{
					"source" : [ "obj-14", 0 ],
					"destination" : [ "obj-42", 0 ],
					"hidden" : 0,
					"midpoints" : [  ]
				}

			}
, 			{
				"patchline" : 				{
					"source" : [ "obj-13", 0 ],
					"destination" : [ "obj-23", 0 ],
					"hidden" : 0,
					"midpoints" : [  ]
				}

			}
, 			{
				"patchline" : 				{
					"source" : [ "obj-11", 3 ],
					"destination" : [ "obj-20", 0 ],
					"hidden" : 0,
					"midpoints" : [  ]
				}

			}
, 			{
				"patchline" : 				{
					"source" : [ "obj-11", 2 ],
					"destination" : [ "obj-19", 0 ],
					"hidden" : 0,
					"midpoints" : [  ]
				}

			}
, 			{
				"patchline" : 				{
					"source" : [ "obj-11", 0 ],
					"destination" : [ "obj-13", 0 ],
					"hidden" : 0,
					"midpoints" : [  ]
				}

			}
, 			{
				"patchline" : 				{
					"source" : [ "obj-11", 1 ],
					"destination" : [ "obj-10", 0 ],
					"hidden" : 0,
					"midpoints" : [  ]
				}

			}
, 			{
				"patchline" : 				{
					"source" : [ "obj-1", 0 ],
					"destination" : [ "obj-3", 0 ],
					"hidden" : 0,
					"midpoints" : [  ]
				}

			}
, 			{
				"patchline" : 				{
					"source" : [ "obj-1", 0 ],
					"destination" : [ "obj-26", 0 ],
					"hidden" : 0,
					"midpoints" : [  ]
				}

			}
 ]
	}

}
