{
	"patcher" : 	{
		"fileversion" : 1,
		"appversion" : 		{
			"major" : 5,
			"minor" : 1,
			"revision" : 9
		}
,
		"rect" : [ 79.0, 119.0, 69.0, 192.0 ],
		"bglocked" : 0,
		"defrect" : [ 79.0, 119.0, 69.0, 192.0 ],
		"openrect" : [ 0.0, 0.0, 0.0, 0.0 ],
		"openinpresentation" : 0,
		"default_fontsize" : 10.0,
		"default_fontface" : 0,
		"default_fontname" : "Trebuchet MS",
		"gridonopen" : 0,
		"gridsize" : [ 7.5, 7.5 ],
		"gridsnaponopen" : 0,
		"toolbarvisible" : 1,
		"boxanimatetime" : 200,
		"imprint" : 0,
		"enablehscroll" : 1,
		"enablevscroll" : 1,
		"devicewidth" : 0.0,
		"boxes" : [ 			{
				"box" : 				{
					"maxclass" : "outlet",
					"numinlets" : 1,
					"patching_rect" : [ 7.5, 157.5, 25.0, 25.0 ],
					"numoutlets" : 0,
					"id" : "obj-3",
					"comment" : ""
				}

			}
, 			{
				"box" : 				{
					"maxclass" : "inlet",
					"numinlets" : 0,
					"patching_rect" : [ 7.5, 7.5, 25.0, 25.0 ],
					"numoutlets" : 1,
					"id" : "obj-2",
					"outlettype" : [ "" ],
					"comment" : "current period"
				}

			}
, 			{
				"box" : 				{
					"maxclass" : "inlet",
					"numinlets" : 0,
					"patching_rect" : [ 22.5, 37.5, 25.0, 25.0 ],
					"numoutlets" : 1,
					"id" : "obj-1",
					"outlettype" : [ "" ],
					"comment" : "total period"
				}

			}
, 			{
				"box" : 				{
					"maxclass" : "newobj",
					"text" : "sel 1",
					"numinlets" : 2,
					"patching_rect" : [ 7.5, 135.0, 32.5, 18.0 ],
					"numoutlets" : 2,
					"id" : "obj-79",
					"fontname" : "Trebuchet MS",
					"outlettype" : [ "bang", "" ],
					"fontsize" : 10.0
				}

			}
, 			{
				"box" : 				{
					"maxclass" : "newobj",
					"text" : "change",
					"numinlets" : 1,
					"patching_rect" : [ 7.5, 112.5, 46.0, 18.0 ],
					"numoutlets" : 3,
					"id" : "obj-78",
					"fontname" : "Trebuchet MS",
					"outlettype" : [ "", "int", "int" ],
					"fontsize" : 10.0
				}

			}
, 			{
				"box" : 				{
					"maxclass" : "newobj",
					"text" : "> 0.",
					"numinlets" : 2,
					"patching_rect" : [ 7.5, 90.0, 32.5, 18.0 ],
					"numoutlets" : 1,
					"id" : "obj-71",
					"fontname" : "Trebuchet MS",
					"outlettype" : [ "int" ],
					"fontsize" : 10.0
				}

			}
, 			{
				"box" : 				{
					"maxclass" : "newobj",
					"text" : "* #1",
					"numinlets" : 2,
					"patching_rect" : [ 22.5, 67.5, 32.5, 18.0 ],
					"numoutlets" : 1,
					"id" : "obj-67",
					"fontname" : "Trebuchet MS",
					"outlettype" : [ "int" ],
					"fontsize" : 10.0
				}

			}
 ],
		"lines" : [ 			{
				"patchline" : 				{
					"source" : [ "obj-1", 0 ],
					"destination" : [ "obj-67", 0 ],
					"hidden" : 0,
					"midpoints" : [  ]
				}

			}
, 			{
				"patchline" : 				{
					"source" : [ "obj-67", 0 ],
					"destination" : [ "obj-71", 1 ],
					"hidden" : 0,
					"midpoints" : [  ]
				}

			}
, 			{
				"patchline" : 				{
					"source" : [ "obj-78", 0 ],
					"destination" : [ "obj-79", 0 ],
					"hidden" : 0,
					"midpoints" : [  ]
				}

			}
, 			{
				"patchline" : 				{
					"source" : [ "obj-71", 0 ],
					"destination" : [ "obj-78", 0 ],
					"hidden" : 0,
					"midpoints" : [  ]
				}

			}
, 			{
				"patchline" : 				{
					"source" : [ "obj-2", 0 ],
					"destination" : [ "obj-71", 0 ],
					"hidden" : 0,
					"midpoints" : [  ]
				}

			}
, 			{
				"patchline" : 				{
					"source" : [ "obj-79", 0 ],
					"destination" : [ "obj-3", 0 ],
					"hidden" : 0,
					"midpoints" : [  ]
				}

			}
 ]
	}

}
