{
	"patcher" : 	{
		"fileversion" : 1,
		"appversion" : 		{
			"major" : 5,
			"minor" : 1,
			"revision" : 9
		}
,
		"rect" : [ 29.0, 69.0, 237.0, 198.0 ],
		"bglocked" : 0,
		"defrect" : [ 29.0, 69.0, 237.0, 198.0 ],
		"openrect" : [ 0.0, 0.0, 0.0, 0.0 ],
		"openinpresentation" : 0,
		"default_fontsize" : 10.0,
		"default_fontface" : 0,
		"default_fontname" : "Trebuchet MS",
		"gridonopen" : 0,
		"gridsize" : [ 7.5, 7.5 ],
		"gridsnaponopen" : 0,
		"toolbarvisible" : 1,
		"boxanimatetime" : 200,
		"imprint" : 0,
		"enablehscroll" : 1,
		"enablevscroll" : 1,
		"devicewidth" : 0.0,
		"boxes" : [ 			{
				"box" : 				{
					"maxclass" : "newobj",
					"text" : "loadmess 1",
					"numinlets" : 1,
					"patching_rect" : [ 157.5, 45.0, 60.0, 18.0 ],
					"numoutlets" : 1,
					"id" : "obj-1",
					"fontname" : "Trebuchet MS",
					"outlettype" : [ "" ],
					"fontsize" : 10.0
				}

			}
, 			{
				"box" : 				{
					"maxclass" : "comment",
					"text" : "Stereo width",
					"numinlets" : 1,
					"patching_rect" : [ 15.0, 15.0, 77.0, 18.0 ],
					"numoutlets" : 0,
					"id" : "obj-344",
					"fontname" : "Trebuchet MS",
					"fontsize" : 10.0
				}

			}
, 			{
				"box" : 				{
					"maxclass" : "inlet",
					"numinlets" : 0,
					"patching_rect" : [ 127.5, 37.5, 25.0, 25.0 ],
					"numoutlets" : 1,
					"id" : "obj-342",
					"outlettype" : [ "" ],
					"comment" : "Width (float)"
				}

			}
, 			{
				"box" : 				{
					"maxclass" : "outlet",
					"numinlets" : 1,
					"patching_rect" : [ 52.5, 157.5, 25.0, 25.0 ],
					"numoutlets" : 0,
					"id" : "obj-341",
					"comment" : ""
				}

			}
, 			{
				"box" : 				{
					"maxclass" : "outlet",
					"numinlets" : 1,
					"patching_rect" : [ 15.0, 157.5, 25.0, 25.0 ],
					"numoutlets" : 0,
					"id" : "obj-340",
					"comment" : ""
				}

			}
, 			{
				"box" : 				{
					"maxclass" : "newobj",
					"text" : "sqrt",
					"numinlets" : 1,
					"patching_rect" : [ 127.5, 112.5, 28.0, 18.0 ],
					"numoutlets" : 1,
					"id" : "obj-331",
					"fontname" : "Trebuchet MS",
					"outlettype" : [ "float" ],
					"fontsize" : 10.0
				}

			}
, 			{
				"box" : 				{
					"maxclass" : "newobj",
					"text" : "sqrt",
					"numinlets" : 1,
					"patching_rect" : [ 97.5, 90.0, 28.0, 18.0 ],
					"numoutlets" : 1,
					"id" : "obj-339",
					"fontname" : "Trebuchet MS",
					"outlettype" : [ "float" ],
					"fontsize" : 10.0
				}

			}
, 			{
				"box" : 				{
					"maxclass" : "newobj",
					"text" : "!- 1.",
					"numinlets" : 2,
					"patching_rect" : [ 127.5, 90.0, 32.5, 18.0 ],
					"numoutlets" : 1,
					"id" : "obj-330",
					"fontname" : "Trebuchet MS",
					"outlettype" : [ "float" ],
					"fontsize" : 10.0
				}

			}
, 			{
				"box" : 				{
					"maxclass" : "inlet",
					"numinlets" : 0,
					"patching_rect" : [ 52.5, 37.5, 25.0, 25.0 ],
					"numoutlets" : 1,
					"id" : "obj-329",
					"outlettype" : [ "" ],
					"comment" : "Right~"
				}

			}
, 			{
				"box" : 				{
					"maxclass" : "inlet",
					"numinlets" : 0,
					"patching_rect" : [ 15.0, 37.5, 25.0, 25.0 ],
					"numoutlets" : 1,
					"id" : "obj-328",
					"outlettype" : [ "" ],
					"comment" : "Left~"
				}

			}
, 			{
				"box" : 				{
					"maxclass" : "newobj",
					"text" : "*~",
					"numinlets" : 2,
					"patching_rect" : [ 112.5, 135.0, 32.5, 18.0 ],
					"numoutlets" : 1,
					"id" : "obj-327",
					"fontname" : "Trebuchet MS",
					"outlettype" : [ "signal" ],
					"fontsize" : 10.0
				}

			}
, 			{
				"box" : 				{
					"maxclass" : "newobj",
					"text" : "*~",
					"numinlets" : 2,
					"patching_rect" : [ 52.5, 135.0, 32.5, 18.0 ],
					"numoutlets" : 1,
					"id" : "obj-326",
					"fontname" : "Trebuchet MS",
					"outlettype" : [ "signal" ],
					"fontsize" : 10.0
				}

			}
, 			{
				"box" : 				{
					"maxclass" : "newobj",
					"text" : "*~",
					"numinlets" : 2,
					"patching_rect" : [ 15.0, 135.0, 32.5, 18.0 ],
					"numoutlets" : 1,
					"id" : "obj-325",
					"fontname" : "Trebuchet MS",
					"outlettype" : [ "signal" ],
					"fontsize" : 10.0
				}

			}
 ],
		"lines" : [ 			{
				"patchline" : 				{
					"source" : [ "obj-1", 0 ],
					"destination" : [ "obj-339", 0 ],
					"hidden" : 0,
					"midpoints" : [  ]
				}

			}
, 			{
				"patchline" : 				{
					"source" : [ "obj-1", 0 ],
					"destination" : [ "obj-330", 0 ],
					"hidden" : 0,
					"midpoints" : [  ]
				}

			}
, 			{
				"patchline" : 				{
					"source" : [ "obj-342", 0 ],
					"destination" : [ "obj-330", 0 ],
					"hidden" : 0,
					"midpoints" : [  ]
				}

			}
, 			{
				"patchline" : 				{
					"source" : [ "obj-342", 0 ],
					"destination" : [ "obj-339", 0 ],
					"hidden" : 0,
					"midpoints" : [  ]
				}

			}
, 			{
				"patchline" : 				{
					"source" : [ "obj-329", 0 ],
					"destination" : [ "obj-326", 0 ],
					"hidden" : 0,
					"midpoints" : [  ]
				}

			}
, 			{
				"patchline" : 				{
					"source" : [ "obj-328", 0 ],
					"destination" : [ "obj-325", 0 ],
					"hidden" : 0,
					"midpoints" : [  ]
				}

			}
, 			{
				"patchline" : 				{
					"source" : [ "obj-328", 0 ],
					"destination" : [ "obj-327", 0 ],
					"hidden" : 0,
					"midpoints" : [  ]
				}

			}
, 			{
				"patchline" : 				{
					"source" : [ "obj-329", 0 ],
					"destination" : [ "obj-327", 0 ],
					"hidden" : 0,
					"midpoints" : [  ]
				}

			}
, 			{
				"patchline" : 				{
					"source" : [ "obj-330", 0 ],
					"destination" : [ "obj-331", 0 ],
					"hidden" : 0,
					"midpoints" : [  ]
				}

			}
, 			{
				"patchline" : 				{
					"source" : [ "obj-339", 0 ],
					"destination" : [ "obj-326", 1 ],
					"hidden" : 0,
					"midpoints" : [  ]
				}

			}
, 			{
				"patchline" : 				{
					"source" : [ "obj-339", 0 ],
					"destination" : [ "obj-325", 1 ],
					"hidden" : 0,
					"midpoints" : [  ]
				}

			}
, 			{
				"patchline" : 				{
					"source" : [ "obj-331", 0 ],
					"destination" : [ "obj-327", 1 ],
					"hidden" : 0,
					"midpoints" : [  ]
				}

			}
, 			{
				"patchline" : 				{
					"source" : [ "obj-326", 0 ],
					"destination" : [ "obj-341", 0 ],
					"hidden" : 0,
					"midpoints" : [  ]
				}

			}
, 			{
				"patchline" : 				{
					"source" : [ "obj-325", 0 ],
					"destination" : [ "obj-340", 0 ],
					"hidden" : 0,
					"midpoints" : [  ]
				}

			}
, 			{
				"patchline" : 				{
					"source" : [ "obj-327", 0 ],
					"destination" : [ "obj-341", 0 ],
					"hidden" : 0,
					"midpoints" : [  ]
				}

			}
, 			{
				"patchline" : 				{
					"source" : [ "obj-327", 0 ],
					"destination" : [ "obj-340", 0 ],
					"hidden" : 0,
					"midpoints" : [  ]
				}

			}
 ]
	}

}
